<?xml version="1.0" encoding="utf-8"?>
<!-- Generator: Adobe Illustrator 16.0.0, SVG Export Plug-In . SVG Version: 6.00 Build 0)  -->
<!DOCTYPE svg PUBLIC "-//W3C//DTD SVG 1.1//EN" "http://www.w3.org/Graphics/SVG/1.1/DTD/svg11.dtd">
<svg version="1.1" id="Layer_1" xmlns="http://www.w3.org/2000/svg" xmlns:xlink="http://www.w3.org/1999/xlink" x="0px" y="0px"
	 width="1265px" height="791px" viewBox="0 0 1265 791" enable-background="new 0 0 1265 791" xml:space="preserve">
<g id="layer3" transform="translate(-92,-63.999774)">
	<g id="layer5">
		<path id="path2554" fill="#ABCD03" d="M377.514,167.978l-4.918,19.529c6.965-13.793,18.027-24.172,30.729-33.323
			c-9.287,10.789-17.755,21.579-22.944,32.368c8.741-12.292,20.486-19.12,33.733-23.627c-17.618,15.706-31.603,32.56-42.255,49.495
			l-8.468-3.687C364.893,195.211,370.001,181.363,377.514,167.978L377.514,167.978z"/>
		<path id="path2534" fill="#FFFCDB" d="M354.901,205.141l16.116,6.686c0,4.098-0.334,16.597,2.229,20.284
			c26.803,34.519,22.294,103.713-5.43,105.488c-42.216,0-58.316-28.679-58.316-55.037c0-24.037,28.816-40.017,46.025-54.22
			C359.895,224.519,359.137,216.068,354.901,205.141L354.901,205.141z"/>
		<path id="path2536" fill="#7D4698" d="M371.021,211.587l5.809,2.962c-0.546,3.823,0.273,12.292,4.096,14.476
			c16.936,10.516,32.914,21.988,39.197,33.46c22.398,40.426-15.706,77.846-48.62,74.295c17.892-13.248,23.081-40.426,16.39-70.062
			c-2.731-11.609-6.967-22.125-14.479-34.007C370.16,226.879,371.296,219.646,371.021,211.587L371.021,211.587z"/>
	</g>
	<g id="layer4">
		<path id="path2538" d="M368.227,210.589l12.018,1.639c-3.551,11.745,6.966,19.939,10.38,21.852
			c7.647,4.234,15.022,8.604,20.896,13.93c11.063,10.106,17.346,24.311,17.346,39.333c0,14.886-6.829,29.226-18.301,38.786
			c-10.789,9.014-25.676,12.838-40.152,12.838c-9.014,0-17.072-0.408-25.812-3.277c-19.939-6.692-34.826-23.764-36.055-44.25
			c-1.093-15.979,2.458-28.135,14.887-40.836c6.418-6.691,19.393-14.339,28.271-20.485c4.371-3.005,9.014-11.473,0.136-27.451
			l1.776-1.366l13.157,8.812l-11.107-4.578c0.956,1.366,3.551,7.512,4.098,9.287c1.229,5.053,0.684,9.971-0.41,12.155
			c-5.599,10.107-15.159,12.838-22.124,18.574c-12.292,10.106-25.676,18.164-24.174,45.889
			c0.683,13.656,11.336,30.318,27.314,38.104c9.014,4.371,19.394,6.146,29.909,6.691c9.424,0.41,27.451-5.189,37.285-13.383
			c10.516-8.74,16.389-21.988,16.389-35.509c0-13.657-5.463-26.632-15.706-35.782c-5.873-5.327-15.569-11.746-21.578-15.161
			c-6.009-3.414-13.521-12.974-11.063-22.124L368.227,210.589z"/>
		<path id="path2540" d="M364.539,230.802c-1.229,6.283-2.596,17.618-8.058,21.853c-2.322,1.638-4.644,3.277-7.102,4.916
			c-9.833,6.693-19.667,12.974-24.173,29.09c-0.956,3.415-0.136,7.102,0.684,10.516c2.458,9.833,9.423,20.486,14.886,26.77
			c0,0.272,1.093,0.955,1.093,1.229c4.507,5.327,5.873,6.829,22.943,10.652l-0.41,1.913c-10.242-2.731-18.709-5.189-24.036-11.337
			c0-0.135-0.956-1.092-0.956-1.092c-5.736-6.557-12.702-17.481-15.296-27.725c-0.956-4.098-1.775-7.238-0.683-11.473
			c4.643-16.661,14.75-23.217,24.993-30.182c2.322-1.502,5.053-2.869,7.238-4.645C359.895,248.146,362.216,238.586,364.539,230.802z
			"/>
		<path id="path2542" d="M368.906,256.75c0.137,7.102-0.557,10.664,1.219,15.719c1.092,3.004,4.782,7.102,5.875,11.062
			c1.502,5.326,3.139,11.199,3,14.75c0,4.098-0.256,11.742-2.031,19.938c-1.354,6.771-4.473,12.581-9.719,15.875
			c-5.373-1.106-11.682-2.996-15.406-6.188c-7.238-6.282-13.649-16.787-14.469-25.938c-0.682-7.512,6.273-18.589,15.969-24.188
			c8.193-4.78,10.1-10.229,11.875-18.969c-2.458,7.648-4.767,14.059-12.688,18.156c-11.472,6.009-17.358,16.096-16.812,25.656
			c0.819,12.291,5.742,20.619,15.438,27.312c4.097,2.867,11.752,5.898,16.531,6.719v-0.625c3.625-0.68,8.318-6.633,10.656-14.688
			c2.049-7.238,2.857-16.502,2.719-22.375c-0.137-3.414-1.643-10.809-4.375-17.5c-1.502-3.688-3.81-7.374-5.312-9.969
			C369.738,268.902,369.727,263.304,368.906,256.75z"/>
		<path id="path2544" d="M368.094,283.531c0.137,4.779,2.057,10.904,2.875,17.188c0.684,4.644,0.387,9.309,0.25,13.406
			c-0.135,4.743-1.715,13.242-3.875,17.375c-2.037-0.934-2.833-2-4.156-3.719c-1.639-2.322-2.751-4.645-3.844-7.375
			c-0.818-2.049-1.776-4.395-2.188-7.125c-0.546-4.098-0.393-10.507,4.25-17.062c3.551-5.19,4.365-5.585,5.594-11.594
			c-1.641,5.326-2.862,5.869-6.688,10.375c-4.233,4.917-4.938,12.159-4.938,18.031c0,2.459,0.98,5.188,1.938,7.781
			c1.092,2.732,2.029,5.451,3.531,7.5c2.258,3.32,5.148,5.209,6.562,5.562c0.009,0.002,0.021-0.002,0.031,0
			c0.03,0.007,0.064,0.025,0.094,0.031v-0.156c2.65-2.955,4.244-5.89,4.781-8.844c0.684-3.551,0.84-7.109,1.25-11.344
			c0.408-3.551,0.112-8.334-0.844-13.25C371.354,294.166,369.05,287.9,368.094,283.531L368.094,283.531z"/>
		<path id="path2550" d="M368.499,225.066c0.137,7.101,0.683,20.35,2.595,25.54c0.547,1.774,5.6,9.56,9.149,18.982
			c2.459,6.557,3.005,12.564,3.415,14.34c1.639,7.785-0.41,20.896-3.143,33.324c-1.365,6.691-6.009,15.023-11.334,18.301
			l-1.093,1.912c3.005-0.137,10.379-7.375,12.974-16.389c4.371-15.296,6.146-22.398,4.099-39.333
			c-0.272-1.64-0.956-7.238-3.552-13.248c-3.823-9.151-9.286-17.892-9.969-19.667C370.411,245.961,368.771,233.533,368.499,225.066
			L368.499,225.066z"/>
		<path id="path2552" d="M371.062,215.353c-0.405,7.298-0.514,9.985,0.852,15.312c1.502,5.873,9.151,14.34,12.292,24.037
			c6.009,18.573,4.507,42.884,0.136,61.866c-1.638,6.691-9.424,16.39-17.208,19.529l5.736,1.366
			c3.141-0.137,11.197-7.647,14.34-16.252c5.052-13.521,6.009-29.636,3.96-46.571c-0.137-1.639-2.869-16.252-5.463-22.397
			c-3.688-9.15-10.244-17.345-10.927-19.119C373.552,230.119,370.854,223.88,371.062,215.353L371.062,215.353z"/>
		<rect id="rect2556" x="366.72" y="210.217" width="0.55" height="126.019"/>
	</g>
</g>
<path id="path2528" fill="#7D4698" d="M120.943,108.075h109.668c4.096,0,7.647,3.414,7.647,7.648v32.367
	c0,4.234-3.551,7.649-7.647,7.649h-22.534c-5.054,0-7.239,2.867-7.239,6.145v105.98c0,3.551-2.868,6.282-6.282,6.282h-37.284
	c-3.415,0-6.146-2.731-6.146-6.282V160.929c0-3.278-3.005-5.189-5.326-5.189h-24.857c-4.234,0-7.648-3.415-7.648-7.649v-32.368
	C113.294,111.489,116.708,108.075,120.943,108.075z"/>
<path id="path2532" fill="#7D4698" d="M402.307,150.959h9.696c3.551,0,6.419,2.868,6.419,6.282v34.69
	c0,4.506,0.273,6.281-5.189,6.281c-10.789,0-15.705,5.736-15.705,12.018v58.59c0,2.731-2.596,5.053-5.736,5.053h-34.827
	c-3.142,0-5.735-2.321-5.735-5.053v-66.784c-0.039-1.175-0.016-2.908,0.137-3.823c1.912-24.72,21.307-44.498,45.888-46.981
	C398.077,151.149,400.992,150.959,402.307,150.959L402.307,150.959z"/>
<path d="M0,0h1265v791H0V0z"/>
<path id="path2554_4_" fill="#C93F3F" d="M386.402,446.374l16.771-18.101c-15.599,10.731-33.594,15.385-52.629,17.749
	c16.327-6.135,31.775-12.754,43.699-21.298c-16.625,8.07-33.268,8.501-50.158,5.558c28.175-6.521,53.12-16.415,74.53-28.355
	l6.936,8.942C415.984,424.522,402.349,436.402,386.402,446.374L386.402,446.374z"/>
<path fill="#01FC00" d="M597.36,143.75c25.859-0.77,51.739-0.75,77.609-0.47c12.34,0.91,24.75-0.22,37.061,1.08
	c7.68-0.45,15.3,0.77,22.97,0.69c33.38,1.48,66.75,3.77,100.01,7.23c5,0.33,9.931,1.43,14.971,1.3c37.05,4,73.89,9.97,110.42,17.32
	c0.109,1.79,0.22,3.58,0.35,5.37c7.27,1.52,14.71,2.41,21.87,4.38c0.229,0.27,0.68,0.81,0.899,1.07
	c-32.989-5.38-66.17-9.9-99.52-12.38c-6.35-0.56-12.7-1.15-19.07-1.03c-3.35-0.34-6.56-1.6-9.949-1.57
	c-6.03,0.08-12.021-0.78-18.051-0.64c-7.27-1.17-14.66-0.19-21.949-1.11c-5.341-0.49-10.7-0.05-16.051-0.24
	c-18.96-1.04-37.96-0.38-56.949-0.56c-13.69-0.29-27.341,0.91-41.04,0.62c-6.98,0.96-14.03,0.37-21.03,0.86
	c-5.58,0.88-11.25,0.18-16.83,0.95c-10.58,0.24-21.1,1.37-31.66,1.83c55.811,6.16,111.57,13.78,166.521,25.56
	c12.079,2.28,23.92,5.78,36.079,7.64c39.221,10.12,78.25,21.69,115.391,38.01c18.51,8.09,36.6,17.36,53.12,29.02
	c0.27,0.46,0.79,1.38,1.06,1.84c-30.32-18.97-63.87-32.2-98.16-42.02c-17.609-5.09-35.47-9.25-53.5-12.5
	c-1.66-0.34-3.29-0.72-4.89-1.24c-1.12-0.06-2.24-0.12-3.34-0.17c-0.37-0.42-1.12-1.28-1.5-1.7c-13.771-1.94-27.44-4.61-41.22-6.54
	c-32.811-4.7-65.87-7.64-98.931-9.67c-8.68-0.16-17.33-1.14-26.02-0.92c-9.17-0.51-18.37-0.92-27.55-0.3
	c20.81,5.19,41.31,11.59,61.71,18.2c24.1,7.89,47.909,16.68,71.21,26.71c6.89,2.79,13.47,6.3,20.47,8.81
	c30.91,14.72,61.16,31.5,87.6,53.44c9.221,8.03,18.58,16.27,25.41,26.52c-4.26-2.62-7.37-6.66-11.16-9.86
	c-30.989-27.31-68.38-46.2-106.569-61.29c-10.32-4.92-21.221-8.49-32-12.23c-34.221-11.37-69.24-20.28-104.66-27.03
	c14.49,28.26,26.92,57.57,37.26,87.6c4.43,3.18,8.43,6.88,12.69,10.26c10.75,10.16,19.04,22.81,24.81,36.4
	c11.95,28.31,11.42,61.63-1.64,89.47c-11.391,24.53-31.67,45.06-56.71,55.56c-49.141,22.421-93.78,53.971-133.48,90.431
	c-3.76,4.25-8.47,7.479-12.33,11.63c-6.31,6.33-12.62,12.64-18.95,18.95c-2.81,2.989-5.26,6.33-8.34,9.069
	c9.04,8.7,21.86,12.641,34.22,12.66c24.5,0.87,49-9.06,66.561-26.06c-1.46,2.72-3.88,4.71-6.021,6.88
	c-13.26,12.35-29.34,21.64-46.659,26.99c-9.36,2.29-19.16,3.64-28.74,1.89c-10.18-1.42-19.97-6-27.47-13.04
	c-8.71,9.37-16.551,19.53-24.58,29.48c-1.25-0.5-2.49-1-3.73-1.49c7.42-11.46,14.72-23.01,22.93-33.93
	c-7.369-8.53-10.689-19.73-12.5-30.65c-2.18-15.14,1.86-30.9,10.82-43.25c10.26-14.22,24.811-24.73,40.24-32.75
	c18.59-9.74,38.649-16.53,59.11-21.061c16.25-3.97,32.689-7.39,48.43-13.149c11.31-4.33,22.899-8.32,33.14-14.93
	c6.73-2.971,12.71-7.28,18.71-11.5c4.21-4.391,9.32-7.87,12.95-12.83c11.37-13.101,17.86-30.12,19.4-47.32
	c-0.101-6.34,0.409-12.75-0.5-19.04c-2.841-22.68-15.051-44.04-33.181-57.95c-1.899-1.41-3.189-3.46-5.069-4.87
	c-15.221-10.15-33.58-15.48-51.87-14.97c-9.76,0.5-19.3,2.78-28.73,5.21c-9.5,2.31-18.859,5.11-28.21,7.93
	c-12.52,5.58-25.78,9.4-38.52,14.48c-15.21,6.21-30.561,12.23-45.061,20.01c2.71,9.23-2.08,20.97-11.7,23.97
	c-19.539,7.76-37.18,20.39-50.579,36.62c-5.011-8-13.87-12.54-22.48-15.66c15.68-2.689,30.73-10.33,41.17-22.49
	c-1.31-0.54-2.61-1.07-3.91-1.6c0.66-1.8,1.57-3.49,2.67-5.06c6.221-9.39,12.07-19.01,18.36-28.35c5.75,0.94,11.63-0.11,17.34,1.15
	c3.07-1.99,6.3-3.71,9.47-5.54c4.591-2.67,7.601-7.15,11.181-10.93c5.22-5.95,10.43-11.9,15.74-17.77
	c0.09,5.08-1.351,10.03-2.28,14.99c3.88-1.29,7.819-2.93,10.87-5.73c6.1-6.22,12.25-12.42,18.42-18.57
	c0.069,4.11-1.17,8.1-2.311,12.01c4.42-2,9.57-2.79,13.181-6.28c4.04-3.99,8.06-8,12.229-11.84c-0.25,2.85-0.78,5.67-1.53,8.43
	c14.431-5.4,28.881-10.92,43.801-14.86c11.67-2.36,23.239-7,31.92-15.36c8.51-8.689,11.939-21.51,10.18-33.41
	c-2.19-17.81-10.38-34.15-19.45-49.37C621.72,173.04,610.29,157.7,597.36,143.75z"/>
<path fill="#DFDEDE" d="M619.23,317.45c25.89-4.81,53.63,5.05,71.369,24.35c-3.17,2.03,0.95,4.91,1.95,7.12
	c-3.59,2.62-6.52,6.15-7.74,10.48c-1.029-1.48-2.14-2.9-3.229-4.32c-9.64-11.14-23.23-18.92-37.75-21.55
	c-16.58-2.89-34.51,0.66-48.14,10.71c-3.511,2.73-7.271,5.26-10.04,8.78c-3.99-0.67-7.33-2.95-10.351-5.49
	c0.2-1.85,0.391-3.72,0.601-5.56c-0.49,0.11-1.48,0.34-1.98,0.45C585.67,329.32,601.9,320.42,619.23,317.45z"/>
<path fill="#63514F" d="M595.69,344.24c13.63-10.05,31.56-13.6,48.14-10.71c14.52,2.63,28.11,10.41,37.75,21.55
	c-0.311,4.22,3.88,7.25,2.92,11.62c-7.26-13.21-20.01-23.04-34.2-27.81c-21.26-6.93-46.14-0.42-61.28,16.01
	C588.95,349.97,594.64,348.57,595.69,344.24z"/>
<path d="M589.02,354.9c15.141-16.43,40.021-22.94,61.28-16.01c14.19,4.77,26.94,14.6,34.2,27.81c2.66,6.53,6.43,12.72,7.25,19.87
	c1.75,8.28-0.45,16.55-1.86,24.69c-1.31,4.471-3.39,8.65-5.27,12.891c-2.14,3.63-4.7,6.979-7.23,10.34
	c-2.529,2.95-5.409,5.6-8.55,7.88c-0.29-0.14-0.88-0.43-1.17-0.58c0.29-1.08,0.63-2.15,0.97-3.21c-4.18,1.96-8.89,3.689-11.35,7.91
	c1.41,0.18,2.83,0.35,4.26,0.529c-12.33,7.37-27.54,9.5-41.53,6.49c-10.75-2.2-20.63-7.72-28.75-15.02
	c-3.51-3.94-6.97-7.95-9.829-12.4c-1.721-3.59-3.631-7.09-5.101-10.78c-1.29-6.369-2.649-13.149-7.84-17.59
	c-0.27-5.62,0.7-11.18,1.7-16.68c2.03-10.48,7.93-19.77,15.069-27.54c-1.479,2.9-2.899,5.85-3.63,9.05
	C584.81,360.76,587.08,357.89,589.02,354.9z"/>
<path fill="#DFDEDE" d="M595.25,351.26c12.67-10.72,30.09-15.84,46.5-12.91c13.11,1.95,25.18,8.96,34.14,18.63
	c-12.09-9.02-26.31-17.41-41.93-16.64c-5.75-0.06-11.57-0.13-17.14,1.48C609.06,343.56,602.34,347.9,595.25,351.26z"/>
<path fill="#9D9796" d="M616.82,341.82c5.569-1.61,11.39-1.54,17.14-1.48c15.62-0.77,29.84,7.62,41.93,16.64
	c3.88,4.27,6.15,9.67,8.88,14.69c-0.789-0.82-1.579-1.63-2.369-2.42c-1.391,0-2.78-0.01-4.16-0.01c-1.681,3.68-4.16,6.93-5.87,10.58
	c-0.18,3.66,1.1,7.18,1.81,10.72c0.03,2.84-0.319,5.67-0.26,8.52c-2.96,3.98-7.74,5.48-11.729,8.07
	c-5.671,5.28-12.44,9.811-20.19,11.23c-4.68,0.409-9.41,0.18-14.1,0.159c-3.341,0.011-6.141-2.05-8.95-3.569
	c0.819-0.21,2.47-0.63,3.29-0.83c3.56-1.99,6.069-5.32,8.229-8.68c6.33-0.051,12.75-1.23,18.46-4.021c2-0.02,4.271,0.7,6.04-0.58
	c1.62-1.13,2.12-3.18,2.83-4.91c3.891-1.96,7.57-4.29,11.2-6.68c-1.32-5.46-5.3-10.34-10.81-11.88
	c-6.171-1.64-13.33-0.83-18.301,3.43c-3.72,2.92-5.97,7.3-7.149,11.81c-6.55,0.55-12.311-3.25-17.24-7.09
	c-4.56-3.62-7.52-8.7-10.42-13.64c-0.58-0.2-1.73-0.62-2.311-0.82c12.171-15.62,37.11-18.44,52.631-6.24
	c0.09,2.24,0.319,4.48,0.79,6.68c2.05-0.03,4.09-0.05,6.149-0.07c4.19,4.16,5.57,10.16,9.55,14.42
	c0.271-8.59-7.76-14.02-8.159-22.32c-5.2,0.99-8.891-3.28-13.28-5.15c-4.53-2-9.391-3.62-14.4-3.39c-5,0.11-10.149-0.48-14.979,1.11
	c-4.011,1.09-7.641,3.13-11.36,4.91c-2.92,0.77-5.44,2.44-7.88,4.15c-1.39-3.14-2.33-6.47-2.61-9.9c-3.859-0.13-6.8,2.46-9.569,4.77
	c-0.311-0.56-0.92-1.68-1.23-2.24c2.09-2.34,4.061-4.96,6.83-6.53C602.34,347.9,609.06,343.56,616.82,341.82z"/>
<path fill="#9D9796" d="M565.78,352.92c2.56-3.59,4.81-7.61,8.14-10.5c0.5-0.11,1.49-0.34,1.98-0.45c-0.21,1.84-0.4,3.71-0.601,5.56
	c3.021,2.54,6.36,4.82,10.351,5.49l-0.381,0.48c-7.14,7.77-13.039,17.06-15.069,27.54c-4.07-2.33-6.98-6.97-12.061-7.06
	c-0.909,2.84-1.79,5.69-2.229,8.65c-0.4,2.57-0.83,5.14-1.09,7.74c-0.28,3.51-0.4,7.04-0.79,10.54
	C552.04,384.18,556.3,366.84,565.78,352.92z"/>
<path fill="#9D9796" d="M692.55,348.92c-1-2.21-5.12-5.09-1.95-7.12c14.721,15.63,23.101,37.69,20.37,59.22
	c-0.41-3.17-0.529-6.359-0.71-9.529c-0.22-2.96-0.74-5.89-1.16-8.82c-1.029-7.68-4.29-14.77-7.34-21.8
	c-0.2,5.33-3.89,9.48-6.66,13.73c-0.54-0.03-1.6-0.1-2.13-0.13c-1.62-5.55-5-10.31-8.16-15.07
	C686.03,355.07,688.96,351.54,692.55,348.92z"/>
<path fill="#291A0F" d="M585.65,353.02c2.77-3.52,6.529-6.05,10.04-8.78c-1.051,4.33-6.74,5.73-6.671,10.66
	c-1.939,2.99-4.21,5.86-7.38,7.65c0.73-3.2,2.15-6.15,3.63-9.05L585.65,353.02z"/>
<path fill="#63514F" d="M589.65,360.03c2.77-2.31,5.71-4.9,9.569-4.77c0.28,3.43,1.221,6.76,2.61,9.9
	c2.439-1.71,4.96-3.38,7.88-4.15c-7.96,5.74-15.31,13.84-16.69,23.91l-0.899-1.64c-1.91-4.47-5.311-8.01-7.83-12.11
	c-1.54,1.03-3.09,2.07-4.86,2.65c2.4-5.62,4.95-11.38,8.99-16.03C588.73,358.35,589.34,359.47,589.65,360.03z"/>
<path fill="#DFDEDE" d="M621.07,356.1c4.83-1.59,9.979-1,14.979-1.11c5.01-0.23,9.87,1.39,14.4,3.39c4.39,1.87,8.08,6.14,13.28,5.15
	c0.399,8.3,8.43,13.73,8.159,22.32c-3.979-4.26-5.359-10.26-9.55-14.42c-2.06,0.02-4.1,0.04-6.149,0.07
	c-0.471-2.2-0.7-4.44-0.79-6.68c-15.521-12.2-40.46-9.38-52.631,6.24c-3.489,4.35-6.409,9.18-8.21,14.49
	c-0.68,1.53-1.409,3.04-2.109,4.57c0.229-1.73,0.439-3.47,0.569-5.2c1.381-10.07,8.73-18.17,16.69-23.91
	C613.43,359.23,617.06,357.19,621.07,356.1z"/>
<path fill="#291A0F" d="M684.5,366.7c0.96-4.37-3.23-7.4-2.92-11.62c1.09,1.42,2.2,2.84,3.229,4.32c3.16,4.76,6.54,9.52,8.16,15.07
	c2.391,7.6,3.811,15.48,3.721,23.459c2.51-1.959,5.239-3.709,7.29-6.18c1.649-3.13,0.479-8.47,5.119-9.08
	c0.42,2.93,0.94,5.86,1.16,8.82c-4.01,2.22-7.35,5.39-10.91,8.229c-0.68,4.83,1.591,9.44,1.11,14.29
	c0.32,6.931-1.97,13.54-2.96,20.3c1.05-0.449,1.87-1.14,2.47-2.069c4.49-7.521,7.19-15.891,9.67-24.24
	c0.36,7.4-2.25,14.52-5.22,21.16c-2.87,6.439-6.89,12.27-11.17,17.84l0.03-0.95l0.069-2.14c-11.109,11.99-25.35,20.77-40.75,26.1
	c0.471,0.09,1.4,0.271,1.87,0.36l0.82,0.16c-22.81,7.41-48.28,2.17-68.4-10.16c-13.05-8.82-23.069-21.94-28.5-36.69
	c-1.81-5.02-3.01-10.279-3.04-15.63c3.851,17.521,13.141,34.05,27.061,45.51c13.17,11.24,30.34,17.41,47.59,17.87
	c3.36,0.09,6.7-0.439,10-1.06c-5.06,0.75-9.99-0.771-15.03-0.87c-3.569-0.19-6.81-1.86-10.13-3.02
	c-8.67-3.561-17.66-7.36-24.21-14.301c-3.67-5.14-8.1-10.05-9.97-16.199c0.03-0.631,0.09-1.9,0.12-2.54
	c0.26,0.29,0.77,0.85,1.029,1.14c13.271,17.2,35.881,26.65,57.421,23.65c0.109,0.02,0.35,0.039,0.46,0.06
	c-0.11,0.27-0.341,0.83-0.46,1.11c-4.23-0.12-8.471-0.061-12.681,0.38c3.45,2.3,7.681,2.37,11.53,3.54
	c3.87,1.14,7.939,1.55,11.96,1.16c6.95-0.891,14.29-1.11,20.39-5.011c6.36-3.279,9.931-9.93,11.91-16.52
	c0.65-2.2,0.33-4.51-0.64-6.54c1.479-1.76,2.79-3.65,4.14-5.5c2.17-3.05,3.88-6.4,5.4-9.82c2.41-4.76,3.609-9.99,4.1-15.28
	c-1.859,1.78-3.729,3.54-5.45,5.45c1.41-8.14,3.61-16.41,1.86-24.69C690.93,379.42,687.16,373.23,684.5,366.7z"/>
<path d="M449.57,374.76c3.47-5.39,7.34-10.5,11.09-15.69c-0.311,2.94-0.97,5.82-1.58,8.71
	C455.85,370.02,452.74,372.43,449.57,374.76z"/>
<path fill="#63514F" d="M695.1,374.6c2.771-4.25,6.46-8.4,6.66-13.73c3.05,7.03,6.311,14.12,7.34,21.8
	c-4.64,0.61-3.47,5.95-5.119,9.08c-2.051,2.47-4.78,4.22-7.29,6.18c0.09-7.979-1.33-15.86-3.721-23.459
	C693.5,374.5,694.56,374.57,695.1,374.6z"/>
<path fill="#63514F" d="M678.24,369.24c1.38,0,2.77,0.01,4.16,0.01c0.79,0.79,1.58,1.6,2.369,2.42c0.771,0.92,1.091,2.12,1.44,3.26
	c0.17,1.12,0.53,3.37,0.7,4.49c-1.03-0.9-2.03-1.68-3.05-2.53c-2.13,5.24-6.45,9.11-9.681,13.65c-0.71-3.54-1.989-7.06-1.81-10.72
	C674.08,376.17,676.56,372.92,678.24,369.24z"/>
<path fill="#291A0F" d="M579.43,373.82c1.771-0.58,3.32-1.62,4.86-2.65c2.52,4.1,5.92,7.64,7.83,12.11
	c-0.851,5.12-1.101,10.32-0.86,15.5c-0.93-1.25-1.66-2.62-2.35-3.99c-1.561-3.19-4.891-5-6.58-8.11c-0.95-1.34-1.44-3.09-2.76-4.12
	c-1.08,0.33-2.08,0.9-3.09,1.39c0.42-3.41,1.05-6.83,2.5-9.96L579.43,373.82z"/>
<path fill="#63514F" d="M594.56,385.55c1.801-5.31,4.721-10.14,8.21-14.49c0.58,0.2,1.73,0.62,2.311,0.82
	c2.9,4.94,5.86,10.02,10.42,13.64c4.93,3.84,10.69,7.64,17.24,7.09c-0.49,4.3,0.02,8.93-2.271,12.831
	c-2.16,3.359-4.67,6.689-8.229,8.68c-6.641-5.53-14.49-9.561-20.28-16.09c-2.7-2.271-4.35-6.23-8.12-6.87
	C594.01,389.28,594.25,387.4,594.56,385.55z"/>
<path fill="#63514F" d="M555.91,382.63c0.439-2.96,1.32-5.81,2.229-8.65c5.08,0.09,7.99,4.73,12.061,7.06
	c-1,5.5-1.97,11.06-1.7,16.68c-2.66-2.89-6.03-5.25-7.67-8.93C559.53,386.51,558.75,383.48,555.91,382.63z"/>
<path fill="#291A0F" d="M686.21,374.93c1.62,3.27,2.771,6.84,2.521,10.53c-0.58-0.11-1.761-0.34-2.341-0.45
	c-4.59,5.43-7.81,11.83-12.33,17.3c-0.04-0.81-0.1-2.439-0.14-3.25c-0.06-2.85,0.29-5.68,0.26-8.52
	c3.23-4.54,7.551-8.41,9.681-13.65c1.02,0.85,2.02,1.63,3.05,2.53C686.74,378.3,686.38,376.05,686.21,374.93z"/>
<path fill="#DFDEDE" d="M639.89,380.8c4.971-4.26,12.13-5.07,18.301-3.43c5.51,1.54,9.489,6.42,10.81,11.88
	c-3.63,2.39-7.31,4.72-11.2,6.68c-0.2-4.36-5.81-7.32-9.189-4.22c-3.341,2.42-2.54,7.26,0.319,9.71
	c-5.71,2.79-12.13,3.97-18.46,4.021c2.29-3.9,1.78-8.53,2.271-12.831C633.92,388.1,636.17,383.72,639.89,380.8z"/>
<path fill="#291A0F" d="M555.91,382.63c2.84,0.85,3.62,3.88,4.92,6.16c1.64,3.68,5.01,6.04,7.67,8.93
	c5.19,4.44,6.55,11.221,7.84,17.59c-2.689-1.64-4.41-4.329-6.05-6.93c0.12,1.18,0.35,3.55,0.46,4.73c-2.31-3.98-1.3-8.79-2.78-12.94
	c-4.229-3.439-8.6-6.79-13.149-9.8C555.08,387.77,555.51,385.2,555.91,382.63z"/>
<path fill="#9D9796" d="M592.12,383.28l0.899,1.64c-0.13,1.73-0.34,3.47-0.569,5.2c0.7-1.53,1.43-3.04,2.109-4.57
	c-0.31,1.85-0.55,3.73-0.72,5.61c-0.27,3.13-0.42,6.28-0.109,9.42c-0.551,0.95-1.08,1.93-1.601,2.91l-0.35,0.649
	c-0.221-1.79-0.431-3.569-0.521-5.359C591.02,393.6,591.27,388.4,592.12,383.28z"/>
<path fill="#291A0F" d="M593.84,391.16c3.771,0.64,5.42,4.6,8.12,6.87c5.79,6.529,13.64,10.56,20.28,16.09
	c-0.82,0.2-2.471,0.62-3.29,0.83c-6.021,1.609-12.97,1.16-17.91-2.97c-3.75-2.78-5.86-7.091-7.31-11.4
	C593.42,397.44,593.57,394.29,593.84,391.16z"/>
<path fill="#DFDEDE" d="M608.44,392.9c2.119-1.9,5.359-3.25,7.88-1.2c3.04,1.73,2.56,5.66,1.14,8.29c-3.3-0.45-6.32-1.811-9.06-3.63
	C608.41,395.49,608.43,393.76,608.44,392.9z"/>
<path fill="#63514F" d="M648.61,391.71c3.38-3.1,8.989-0.14,9.189,4.22c-0.71,1.73-1.21,3.78-2.83,4.91
	c-1.77,1.28-4.04,0.561-6.04,0.58C646.07,398.97,645.27,394.13,648.61,391.71z"/>
<path fill="#9D9796" d="M608.98,399.96c-1.98-1.89-1.891-4.85-0.54-7.06c-0.011,0.86-0.03,2.59-0.04,3.46
	c2.739,1.819,5.76,3.18,9.06,3.63C615.1,402.15,611.21,402.48,608.98,399.96z"/>
<path fill="#63514F" d="M662.19,407.13c3.989-2.59,8.77-4.09,11.729-8.07c0.04,0.811,0.1,2.44,0.14,3.25
	c-2.22,16.931-16.01,32.03-32.97,34.99c-10.75,1.96-22.29,0.11-31.479-5.939c5.239,1.979,10.22,4.89,15.909,5.42
	c10.171,1.3,21.65-0.2,29.45-7.41c-3.21,0.26-6.21,1.47-9.35,2.04c-6.86,0.72-13.68-0.65-20.42-1.74
	c-6.32-1.07-11.88-4.45-17.41-7.5c-5.25-2.83-8.9-7.71-13.86-10.93c-1.81-2.07-1.75-5.15-1.8-7.75c0.521-0.98,1.05-1.96,1.601-2.91
	c1.449,4.31,3.56,8.62,7.31,11.4c4.94,4.13,11.89,4.579,17.91,2.97c2.81,1.52,5.609,3.58,8.95,3.569
	c4.689,0.021,9.42,0.25,14.1-0.159C649.75,416.94,656.52,412.41,662.19,407.13z"/>
<path fill="#63514F" d="M689.89,411.26c1.721-1.91,3.591-3.67,5.45-5.45c-0.49,5.29-1.689,10.521-4.1,15.28
	c0.189-1.01,0.569-3.04,0.77-4.05c-2.2,2.64-4.68,5.01-7.39,7.11C686.5,419.91,688.58,415.73,689.89,411.26z"/>
<path fill="#63514F" d="M570.29,408.38c1.64,2.601,3.36,5.29,6.05,6.93c1.47,3.69,3.38,7.19,5.101,10.78
	c-3.171-1.76-5.58-4.47-7.7-7.35l-0.13,1.979c-1.301-2.39-2.32-4.939-2.86-7.609C570.64,411.93,570.41,409.56,570.29,408.38z"/>
<path fill="#291A0F" d="M593.93,411.24c4.96,3.22,8.61,8.1,13.86,10.93c5.53,3.05,11.09,6.43,17.41,7.5
	c6.74,1.09,13.56,2.46,20.42,1.74c3.14-0.57,6.14-1.78,9.35-2.04c-7.8,7.21-19.279,8.71-29.45,7.41
	c-5.689-0.53-10.67-3.44-15.909-5.42c-5.2-2.511-9-7.21-12.341-11.78C595.76,417.02,593.39,414.43,593.93,411.24z"/>
<path fill="#9D9796" d="M684.62,424.15c2.71-2.101,5.189-4.471,7.39-7.11c-0.2,1.01-0.58,3.04-0.77,4.05
	c-1.521,3.42-3.23,6.771-5.4,9.82c-2.72,1.42-5.56,2.57-8.45,3.58C679.92,431.13,682.48,427.78,684.62,424.15z"/>
<path fill="#9D9796" d="M573.74,418.74c2.12,2.88,4.529,5.59,7.7,7.35c2.859,4.45,6.319,8.46,9.829,12.4
	c-3.239-1.11-5.939-3.75-9.46-3.91c-0.26-0.29-0.77-0.85-1.029-1.14c-2.931-3.891-5.261-8.24-7.17-12.721L573.74,418.74z"/>
<path fill="#DFDEDE" d="M677.39,434.49c2.891-1.01,5.73-2.16,8.45-3.58c-1.35,1.85-2.66,3.74-4.14,5.5
	c-3.271,3.49-6.53,7.02-10.351,9.92c-3.47,3.25-7.75,5.27-12.109,7.03c-6.181,2.71-12.86,4.159-19.55,4.93
	c-0.11-0.021-0.351-0.04-0.46-0.06c-21.54,3-44.15-6.45-57.421-23.65c3.521,0.16,6.221,2.8,9.46,3.91
	c8.12,7.3,18,12.819,28.75,15.02c13.99,3.01,29.2,0.88,41.53-6.49c2.46-1.489,4.95-2.96,7.29-4.649
	C671.98,440.09,674.86,437.44,677.39,434.49z"/>
<path fill="#63514F" d="M681.7,436.41c0.97,2.03,1.29,4.34,0.64,6.54c-1.979,6.59-5.55,13.24-11.91,16.52
	c-6.1,3.9-13.439,4.12-20.39,5.011c-4.021,0.39-8.09-0.021-11.96-1.16c-3.85-1.17-8.08-1.24-11.53-3.54
	c4.21-0.44,8.45-0.5,12.681-0.38c0.119-0.28,0.35-0.841,0.46-1.11c6.689-0.771,13.369-2.22,19.55-4.93
	c2.56,1.01,5.3,1.319,8.05,1.409c1.43-1.51,2.87-3,4.3-4.51c-0.06-0.979-0.18-2.95-0.24-3.93
	C675.17,443.43,678.43,439.9,681.7,436.41z"/>
<path fill="#291A0F" d="M657.29,446.49c2.46-4.221,7.17-5.95,11.35-7.91c-0.34,1.06-0.68,2.13-0.97,3.21
	c0.29,0.15,0.88,0.44,1.17,0.58c-2.34,1.689-4.83,3.16-7.29,4.649C660.12,446.84,658.7,446.67,657.29,446.49z"/>
<path fill="#63514F" d="M652.6,470.01c15.4-5.33,29.641-14.109,40.75-26.1l-0.069,2.14c-9.61,12.3-23.67,20.771-38.811,24.32
	C654,470.28,653.07,470.1,652.6,470.01z"/>
<path fill="#9D9796" d="M659.24,453.36c4.359-1.761,8.64-3.78,12.109-7.03c0.061,0.979,0.181,2.95,0.24,3.93
	c-1.43,1.51-2.87,3-4.3,4.51C664.54,454.68,661.8,454.37,659.24,453.36z"/>
<path d="M521.68,545.68c23.391-15.699,51.48-22.13,78.88-26.56c-17.659,12.54-33.79,27.11-49.55,41.899
	c-19.1,18.62-36.63,38.801-53.029,59.83c-6.03-9.47-6.53-21.199-5.37-32.04C495.13,570.91,506.89,555.52,521.68,545.68z"/>
<g>
	<g>
		<circle fill="#555555" cx="980.997" cy="605.099" r="162.997"/>
		<path fill="#555555" d="M980.997,764.567c-88.072,0-159.469-71.396-159.469-159.469c0-88.073,71.396-159.47,159.469-159.47
			c44.036,0,79.734,35.699,79.734,79.734c0,44.037-35.698,79.735-79.734,79.735V764.567z"/>
		<circle fill="#555555" cx="980.997" cy="684.833" r="79.734"/>
		<circle fill="#555555" cx="980.997" cy="525.364" r="21.168"/>
		<circle fill="#555555" cx="980.997" cy="684.833" r="21.169"/>
	</g>
	<g>
		<circle fill="#555555" cx="980.997" cy="605.099" r="162.997"/>
		<path fill="#FFFFFF" d="M980.997,764.567c-88.072,0-159.469-71.396-159.469-159.469c0-88.073,71.396-159.47,159.469-159.47
			c44.036,0,79.734,35.699,79.734,79.734c0,44.037-35.698,79.735-79.734,79.735V764.567z"/>
		<circle fill="#555555" cx="980.997" cy="684.833" r="79.734"/>
		<circle cx="980.997" cy="525.364" r="21.168"/>
		<circle fill="#FFFFFF" cx="980.997" cy="684.833" r="21.169"/>
	</g>
</g>
<path id="path2554_2_" fill="#CB773D" d="M824.186,582.906c9.73-16.095,21.404-29.907,34.912-39.679l9.045,6.801
	c-11.616,21.587-21.135,46.678-27.23,74.948c-3.197-16.845-3.017-33.491,4.803-50.236c-8.364,12.051-14.75,27.598-20.639,44.015
	c2.078-19.068,6.46-37.132,16.955-52.891L824.186,582.906L824.186,582.906z"/>
<g>
	<g id="layer5_1_">
		<path id="path2554_1_" fill="#A8CB38" d="M858.483,607.659l23.126-10.678c-18.994,4.192-37.726,1.761-56.488-3.212
			c17.785,0.405,34.946,0.023,49.606-3.504c-18.86,1.304-34.587-4.582-49.157-13.737c29.015,4.521,56.396,4.651,81.32,1.521
			l2.797,11.029C895.126,598.298,877.491,604.313,858.483,607.659L858.483,607.659z"/>
		<path id="path2534_1_" fill="#FDFADC" d="M912.596,600.054l-5.651-20.73c4.066-3.231,16.724-12.766,18.429-18.13
			c13.821-52.928,85.916-103.152,108.811-77.954c32.178,40.501,15.994,78.558-10.16,99.338
			c-23.852,18.949-61.672,3.901-88.882-1.412C928.017,579.987,920.209,587.377,912.596,600.054L912.596,600.054z"/>
		<path id="path2536_1_" fill="#7E4697" d="M906.703,579.509l-1.488-7.908c4.211-2.49,11.988-9.955,11.242-15.342
			c-2.474-24.54-3.271-48.913,3.324-63.985c23.039-53.358,89.214-46.303,110.779-11.925c-26.783-6.722-57.706,9.726-82.013,39.509
			c-9.438,11.773-16.644,24.127-22.708,40.701C922.533,568.278,914.49,572.891,906.703,579.509L906.703,579.509z"/>
	</g>
	<g id="layer4_1_">
		<path id="path2538_1_" d="M907.826,583.989l-7.534-12.822c14.361-5.853,14.476-22.4,13.771-27.186
			c-1.628-10.673-2.915-21.194-2.106-31.028c1.596-18.581,10.9-35.807,25.807-47.648c14.771-11.736,34.205-16.49,52.436-13.021
			c17.168,3.246,32.31,14.514,43.344,28.402c6.871,8.646,12.608,16.699,16.425,27.346c8.558,24.405,2.966,52.146-16.427,69.477
			c-15.021,13.646-29.789,19.822-51.865,17.911c-11.532-0.883-29.011-7.301-41.877-10.974c-6.312-1.824-18.254,0.397-27.342,21.511
			l-2.709-0.625l-1.284-19.57l3.924,14.264c0.627-1.993,4.747-9.326,6.092-11.252c4.076-5.162,9.372-8.517,12.372-9.188
			c14.297-2.597,24.294,4.423,35.294,6.582c19.397,3.826,37.595,10.314,63.96-12.985c13.03-11.42,21.442-34.776,16.989-56.243
			c-2.534-12.094-8.685-23.451-16.16-33.969c-6.776-9.365-26.073-22.246-41.698-25.222c-16.689-3.198-34.311,1.612-47.727,12.271
			c-13.552,10.767-22.262,26.236-23.533,43.276c-0.809,9.834,0.213,24.197,1.404,32.655c1.193,8.455-2.567,23.198-13.52,28.055
			L907.826,583.989z"/>
		<path id="path2540_1_" d="M930.693,571.593c7.171-3.775,19.46-11.4,27.826-9.498c3.395,0.938,6.791,1.872,10.291,2.939
			c14.137,4.157,27.864,8.64,47.29,0.257c4.118-1.774,7.149-5.468,9.913-8.946c7.883-10.109,13.145-25.19,15.216-35.386
			c0.271-0.215,0.113-1.801,0.385-2.017c1.851-8.524,2.3-11.019-6.919-30.409l2.211-1.115c5.098,11.979,9.112,22.041,7.072,31.998
			c-0.133,0.105-0.354,1.777-0.354,1.777c-2.134,10.673-7.664,25.968-15.851,36.532c-3.338,4.146-5.829,7.408-10.863,9.7
			c-20.071,8.68-34.28,4.152-48.999-0.184c-3.26-1.045-6.699-2.588-10.125-3.283C951.444,562.375,940.188,567.685,930.693,571.593z"
			/>
		<path id="path2542_1_" d="M953.112,546.946c6.942-5.73,11.005-7.874,14.667-13.562c2.149-3.416,3.402-10.188,6.499-14.357
			c4.14-5.641,8.721-11.841,12.349-14.506c4.066-3.232,11.847-9.012,21.332-13.771c7.751-4.039,15.893-5.627,23.16-3.19
			c2.998,6.027,5.932,13.57,5.604,19.659c-0.717,11.896-6.254,26.329-14.707,34.328c-6.935,6.578-23.227,8.638-36.173,3.75
			c-10.989-4.094-17.849-1.627-27.874,3.561c9.463-3.671,17.583-6.51,27.688-2.142c14.706,6.271,29.203,3.965,38.272-4.097
			c11.571-10.475,16.082-21.764,15.335-36.343c-0.279-6.19-3.106-15.925-5.936-21.157l-0.62,0.494
			c-3.438-2.941-12.923-2.752-22.696,1.354c-8.744,3.741-18.553,10.269-24.274,15.032c-3.284,2.822-9.473,10.096-14.03,17.993
			c-2.514,4.349-4.412,9.468-5.842,12.956C964.535,536.567,958.99,540.99,953.112,546.946z"/>
		<path id="path2544_1_" d="M980.305,526.611c4.639-3.898,9.253-10.568,14.863-16.308c4.086-4.315,8.941-7.71,13.111-10.809
			c4.811-3.61,14.447-8.794,20.195-9.98c0.626,2.69,0.174,4.296-0.523,6.919c-1.055,3.403-2.512,6.301-4.388,9.502
			c-1.408,2.4-3.006,5.168-5.401,7.715c-3.65,3.755-10.127,8.661-20.171,9.375c-7.856,0.685-8.87,0.216-15.769,3.773
			c6.537-2.625,8.007-1.881,15.394-1.763c8.105,0.185,15.829-4.85,21.655-9.479c2.439-1.938,4.4-5.03,6.243-7.993
			c1.88-3.203,3.862-6.245,4.751-9.301c1.573-4.784,1.244-9.046,0.517-10.682c-0.003-0.01-0.019-0.018-0.022-0.029
			c-0.018-0.034-0.025-0.082-0.041-0.115l-0.155,0.123c-4.952-0.213-9.079,0.572-12.419,2.386c-4.045,2.144-7.695,4.8-12.21,7.743
			c-3.834,2.408-8.354,6.463-12.504,11.256C988.372,515.102,983.912,522.25,980.305,526.611L980.305,526.611z"/>
		<path id="path2550_1_" d="M921.984,572.314c6.941-5.729,19.672-16.697,23.363-22.623c1.344-1.923,5.217-12.908,11.861-23.743
			c4.631-7.527,10.176-12.788,11.625-14.581c6.476-7.709,21.047-16.08,35.463-23.257c7.68-3.965,19.486-6.079,26.797-3.554
			l2.73-0.459c-2.426-2.775-15.229-4.144-26.15,0.473c-18.509,7.866-26.91,11.762-42.153,27.077
			c-1.419,1.554-6.452,6.624-10.438,13.853c-6.165,10.881-10.674,23.013-11.915,25.067
			C941.26,554.007,930.178,565.378,921.984,572.314L921.984,572.314z"/>
		<path id="path2552_1_" d="M910.393,577.514c7.551-5.364,10.301-7.38,14.545-12.889c4.683-6.071,7.252-20.084,14.48-30.742
			c13.85-20.407,39.117-38.132,61.284-48.902c7.888-3.705,23.446-3.881,32.494,1.112l-3.017-6.581
			c-2.529-2.905-16.123-4.713-27.057-0.944c-17.266,5.812-33.986,17.599-49.229,32.916c-1.521,1.423-13.938,15.564-18.06,22.897
			c-6.268,10.752-9.402,23.503-10.642,25.557C923.146,563.483,919.012,570.991,910.393,577.514L910.393,577.514z"/>
		
			<rect id="rect2556_1_" x="970.581" y="455.937" transform="matrix(0.6213 0.7835 -0.7835 0.6213 787.4706 -557.8738)" width="0.674" height="159.706"/>
	</g>
</g>
<g>
	<g>
		<g>
			<path fill="#69BC45" d="M1103.453,419.81c-4.416-2.037-8.568-4.886-12.915-7.15c-14.701-8.141-29.723-15.274-44.928-21.677
				c-12.87-5.366-25.805-10.56-38.935-14.771c5.793-0.503,11.598-0.17,17.383,0.243c5.482-0.178,10.939,0.617,16.416,0.747
				c20.859,1.647,41.717,4.034,62.417,7.848c8.694,1.566,17.319,3.734,26.007,5.308c0.239,0.341,0.713,1.038,0.946,1.379
				c0.694,0.042,1.4,0.09,2.106,0.139c1.01,0.422,2.038,0.729,3.086,1.006c11.375,2.638,22.644,6.014,33.754,10.145
				c21.635,7.971,42.802,18.707,61.932,34.104c-0.17-0.373-0.498-1.12-0.669-1.493c-10.423-9.463-21.837-16.986-33.515-23.553
				c-23.432-13.245-48.057-22.635-72.803-30.848c-7.67-1.509-15.141-4.35-22.763-6.201c-34.669-9.56-69.849-15.744-105.062-20.743
				c6.663-0.374,13.301-1.292,19.976-1.486c3.521-0.625,7.097-0.057,10.618-0.771c4.417-0.397,8.864,0.082,13.269-0.698
				c8.644,0.235,17.256-0.738,25.894-0.502c11.98,0.146,23.968-0.391,35.93,0.454c3.377,0.154,6.757-0.204,10.127,0.194
				c4.6,0.747,9.262-0.048,13.849,0.901c3.805-0.114,7.584,0.584,11.389,0.519c2.139-0.024,4.163,0.998,6.277,1.274
				c4.019-0.098,8.025,0.381,12.031,0.836c21.041,2.012,41.976,5.681,62.79,10.047c-0.139-0.211-0.424-0.648-0.568-0.868
				c-4.518-1.599-9.212-2.321-13.798-3.554c-0.082-1.453-0.151-2.906-0.222-4.359c-23.047-5.965-46.29-10.81-69.666-14.057
				c-3.18,0.106-6.29-0.787-9.444-1.055c-20.985-2.809-42.039-4.666-63.098-5.869c-4.84,0.065-9.647-0.924-14.493-0.56
				c-7.768-1.055-15.597-0.138-23.382-0.876c-16.323-0.228-32.651-0.244-48.966,0.381c8.157,11.322,15.369,23.771,21.703,36.879
				c5.723,12.352,10.889,25.614,12.271,40.068c1.11,9.659-1.053,20.063-6.422,27.115c-5.478,6.784-12.777,10.551-20.139,12.466
				c-9.414,3.197-18.531,7.678-27.636,12.061c0.474-2.24,0.808-4.528,0.966-6.842c-2.631,3.117-5.168,6.371-7.717,9.609
				c-2.277,2.832-5.527,3.474-8.314,5.096c0.719-3.172,1.5-6.41,1.457-9.746c-3.893,4.99-7.773,10.023-11.621,15.071
				c-1.926,2.272-4.411,3.603-6.859,4.649c0.588-4.024,1.496-8.043,1.439-12.164c-3.351,4.763-6.638,9.592-9.932,14.422
				c-2.258,3.066-4.157,6.703-7.053,8.871c-2,1.484-4.038,2.881-5.976,4.495c-3.603-1.022-7.312-0.17-10.94-0.933
				c-3.968,7.579-7.659,15.387-11.584,23.008c-0.693,1.274-1.268,2.646-1.684,4.107c0.819,0.43,1.641,0.859,2.467,1.298
				c-6.587,9.868-16.082,16.069-25.975,18.253c5.432,2.532,11.021,6.217,14.184,12.708c8.453-13.171,19.583-23.421,31.91-29.719
				c6.07-2.435,9.092-11.964,7.383-19.454c9.148-6.314,18.833-11.2,28.43-16.24c8.037-4.123,16.403-7.223,24.303-11.752
				c5.898-2.289,11.805-4.561,17.798-6.436c5.95-1.973,11.97-3.822,18.127-4.229c11.539-0.414,23.122,3.912,32.726,12.149
				c1.186,1.145,2,2.809,3.198,3.952c11.438,11.289,19.143,28.625,20.936,47.032c0.573,5.104,0.251,10.308,0.314,15.454
				c-0.972,13.958-5.065,27.771-12.24,38.404c-2.29,4.024-5.515,6.85-8.171,10.412c-3.785,3.424-7.558,6.923-11.804,9.334
				c-6.46,5.362-13.772,8.603-20.909,12.116c-9.93,4.674-20.303,7.45-30.555,10.673c-12.909,3.675-25.564,9.186-37.294,17.092
				c-9.735,6.509-18.916,15.038-25.389,26.58c-5.653,10.022-8.202,22.813-6.827,35.1c1.143,8.863,3.238,17.953,7.887,24.876
				c-5.18,8.862-9.785,18.237-14.467,27.537c0.783,0.399,1.564,0.804,2.354,1.21c5.066-8.075,10.014-16.32,15.509-23.926
				c4.731,5.713,10.908,9.431,17.331,10.583c6.045,1.42,12.227,0.325,18.133-1.535c10.927-4.342,21.072-11.88,29.438-21.902
				c1.352-1.763,2.877-3.378,3.799-5.584c-11.079,13.797-26.537,21.854-41.994,21.147c-7.798-0.014-15.887-3.212-21.59-10.274
				c1.943-2.222,3.488-4.935,5.262-7.359c3.994-5.122,7.976-10.243,11.956-15.382c2.436-3.366,5.407-5.987,7.779-9.438
				c25.048-29.59,53.212-55.195,84.216-73.393c15.799-8.521,28.593-25.184,35.779-45.091c8.24-22.596,8.574-49.638,1.034-72.614
				c-3.64-11.029-8.871-21.296-15.653-29.541c-2.688-2.744-5.211-5.747-8.006-8.327c-6.523-24.372-14.365-48.159-23.508-71.096
				c22.347,5.478,44.442,12.709,66.031,21.938c6.803,3.034,13.679,5.933,20.19,9.926c24.095,12.247,47.685,27.578,67.236,49.742
				c2.392,2.597,4.354,5.876,7.041,8.003c-4.309-8.32-10.213-15.008-16.031-21.524
				C1142.041,445.375,1122.955,431.756,1103.453,419.81z M945.18,672.896c-12.05,15.111-23.11,31.489-33.457,48.558
				c-3.805-7.685-4.12-17.206-3.389-26.004c1.591-14.527,9.01-27.017,18.341-35.005c14.759-12.74,32.481-17.959,49.768-21.554
				C965.301,649.067,955.123,660.893,945.18,672.896z"/>
		</g>
	</g>
	<path d="M883.552,513.362c2.372-4.959,5.019-9.661,7.583-14.437c-0.212,2.705-0.662,5.355-1.08,8.014
		C887.846,509.002,885.72,511.219,883.552,513.362z"/>
</g>
<g id="layer3_1_" transform="translate(-92,-63.999774)">
	<g id="layer5_2_">
		<path id="path2554_3_" fill="#ABCD03" d="M641.208,535.709l-4.918,19.529c6.965-13.793,18.027-24.172,30.729-33.322
			c-9.287,10.789-17.755,21.578-22.944,32.367c8.741-12.292,20.486-19.119,33.733-23.627c-17.618,15.706-31.603,32.56-42.255,49.494
			l-8.468-3.687C628.587,562.943,633.695,549.094,641.208,535.709L641.208,535.709z"/>
		<path id="path2534_2_" fill="#FFFCDB" d="M618.596,572.873l16.116,6.686c0,4.099-0.334,16.598,2.229,20.285
			c26.803,34.519,22.294,103.713-5.43,105.487c-42.216,0-58.316-28.679-58.316-55.037c0-24.037,28.816-40.017,46.025-54.22
			C623.589,592.25,622.831,583.799,618.596,572.873L618.596,572.873z"/>
		<path id="path2536_2_" fill="#7D4698" d="M634.716,579.318l5.809,2.963c-0.546,3.823,0.273,12.292,4.096,14.477
			c16.936,10.516,32.914,21.987,39.197,33.46c22.398,40.426-15.706,77.846-48.62,74.295c17.892-13.248,23.081-40.426,16.39-70.062
			c-2.731-11.609-6.967-22.125-14.479-34.007C633.854,594.611,634.99,587.377,634.716,579.318L634.716,579.318z"/>
	</g>
	<g id="layer4_2_">
		<path id="path2538_2_" d="M631.921,578.32l12.018,1.639c-3.551,11.746,6.966,19.939,10.38,21.853
			c7.647,4.233,15.022,8.604,20.896,13.93c11.063,10.106,17.346,24.311,17.346,39.333c0,14.886-6.829,29.226-18.301,38.786
			c-10.789,9.014-25.676,12.838-40.152,12.838c-9.014,0-17.072-0.408-25.812-3.277c-19.939-6.692-34.826-23.764-36.055-44.25
			c-1.093-15.979,2.458-28.135,14.887-40.836c6.418-6.691,19.393-14.339,28.271-20.485c4.371-3.005,9.014-11.473,0.136-27.451
			l1.776-1.366l13.157,8.812l-11.107-4.578c0.956,1.366,3.551,7.512,4.098,9.287c1.229,5.053,0.684,9.971-0.41,12.155
			c-5.599,10.106-15.159,12.838-22.124,18.573c-12.292,10.106-25.676,18.164-24.174,45.889
			c0.683,13.656,11.336,30.318,27.314,38.104c9.014,4.371,19.394,6.146,29.909,6.691c9.424,0.41,27.451-5.189,37.285-13.383
			c10.516-8.74,16.389-21.988,16.389-35.509c0-13.657-5.463-26.632-15.706-35.782c-5.873-5.327-15.569-11.745-21.578-15.161
			c-6.009-3.414-13.521-12.974-11.063-22.123L631.921,578.32z"/>
		<path id="path2540_2_" d="M628.233,598.533c-1.229,6.283-2.596,17.618-8.058,21.853c-2.322,1.638-4.644,3.277-7.102,4.916
			c-9.833,6.693-19.667,12.974-24.173,29.09c-0.956,3.415-0.136,7.102,0.684,10.516c2.458,9.833,9.423,20.486,14.886,26.77
			c0,0.272,1.093,0.955,1.093,1.229c4.507,5.327,5.873,6.829,22.943,10.652l-0.41,1.913c-10.242-2.731-18.709-5.189-24.036-11.337
			c0-0.135-0.956-1.092-0.956-1.092c-5.736-6.557-12.702-17.481-15.296-27.725c-0.956-4.098-1.775-7.238-0.683-11.473
			c4.643-16.661,14.75-23.217,24.993-30.182c2.322-1.502,5.053-2.869,7.238-4.645C623.589,615.878,625.91,606.317,628.233,598.533z"
			/>
		<path id="path2542_2_" d="M632.601,624.481c0.137,7.102-0.557,10.664,1.219,15.719c1.092,3.004,4.782,7.102,5.875,11.062
			c1.502,5.326,3.139,11.199,3,14.75c0,4.098-0.256,11.742-2.031,19.938c-1.354,6.771-4.473,12.581-9.719,15.875
			c-5.373-1.106-11.682-2.996-15.406-6.188c-7.238-6.282-13.649-16.787-14.469-25.938c-0.682-7.512,6.273-18.589,15.969-24.188
			c8.193-4.78,10.1-10.229,11.875-18.969c-2.458,7.648-4.767,14.059-12.688,18.156c-11.472,6.009-17.358,16.096-16.812,25.656
			c0.819,12.291,5.742,20.619,15.438,27.312c4.097,2.867,11.752,5.898,16.531,6.719v-0.625c3.625-0.68,8.318-6.633,10.656-14.688
			c2.049-7.238,2.857-16.502,2.719-22.375c-0.137-3.414-1.643-10.809-4.375-17.5c-1.502-3.688-3.81-7.374-5.312-9.969
			C633.433,636.634,633.421,631.036,632.601,624.481z"/>
		<path id="path2544_2_" d="M631.788,651.262c0.137,4.779,2.057,10.904,2.875,17.188c0.684,4.644,0.387,9.309,0.25,13.406
			c-0.135,4.743-1.715,13.242-3.875,17.375c-2.037-0.934-2.833-2-4.156-3.719c-1.639-2.322-2.751-4.645-3.844-7.375
			c-0.818-2.049-1.776-4.395-2.188-7.125c-0.546-4.098-0.393-10.507,4.25-17.062c3.551-5.19,4.365-5.585,5.594-11.594
			c-1.641,5.326-2.862,5.869-6.688,10.375c-4.233,4.917-4.938,12.159-4.938,18.031c0,2.459,0.98,5.188,1.938,7.781
			c1.092,2.732,2.029,5.451,3.531,7.5c2.258,3.32,5.148,5.209,6.562,5.562c0.009,0.002,0.021-0.002,0.031,0
			c0.03,0.007,0.064,0.025,0.094,0.031v-0.156c2.65-2.955,4.244-5.89,4.781-8.844c0.684-3.551,0.84-7.109,1.25-11.344
			c0.408-3.551,0.112-8.334-0.844-13.25C635.048,661.897,632.744,655.632,631.788,651.262L631.788,651.262z"/>
		<path id="path2550_2_" d="M632.193,592.797c0.137,7.102,0.683,20.351,2.595,25.54c0.547,1.774,5.6,9.56,9.149,18.982
			c2.459,6.557,3.005,12.564,3.415,14.34c1.639,7.785-0.41,20.896-3.143,33.324c-1.365,6.691-6.009,15.023-11.334,18.301
			l-1.093,1.912c3.005-0.137,10.379-7.375,12.974-16.389c4.371-15.296,6.146-22.398,4.099-39.333
			c-0.272-1.64-0.956-7.238-3.552-13.248c-3.823-9.151-9.286-17.892-9.969-19.667C634.105,613.692,632.466,601.264,632.193,592.797
			L632.193,592.797z"/>
		<path id="path2552_2_" d="M634.756,583.085c-0.405,7.298-0.514,9.985,0.852,15.312c1.502,5.873,9.151,14.34,12.292,24.037
			c6.009,18.573,4.507,42.884,0.136,61.866c-1.638,6.691-9.424,16.39-17.208,19.529l5.736,1.366
			c3.141-0.137,11.197-7.647,14.34-16.252c5.052-13.521,6.009-29.636,3.96-46.571c-0.137-1.639-2.869-16.252-5.463-22.397
			c-3.688-9.15-10.244-17.346-10.927-19.119C637.246,597.85,634.548,591.611,634.756,583.085L634.756,583.085z"/>
		<rect id="rect2556_2_" x="630.414" y="577.949" width="0.55" height="126.019"/>
	</g>
</g>
</svg>
