<?xml version="1.0" encoding="UTF-8" ?>
<!DOCTYPE svg PUBLIC "-//W3C//DTD SVG 1.1//EN" "http://www.w3.org/Graphics/SVG/1.1/DTD/svg11.dtd">
<svg width="1265pt" height="791pt" viewBox="0 0 1265 791" version="1.1" xmlns="http://www.w3.org/2000/svg">
<path fill="#000000" d=" M 0.00 0.00 L 1265.00 0.00 L 1265.00 791.00 L 0.00 791.00 L 0.00 0.00 Z" />
<path fill="#01fc00" d=" M 597.36 143.75 C 623.22 142.98 649.10 143.00 674.97 143.28 C 687.31 144.19 699.72 143.06 712.03 144.36 C 719.71 143.91 727.33 145.13 735.00 145.05 C 768.38 146.53 801.75 148.82 835.01 152.28 C 840.01 152.61 844.94 153.71 849.98 153.58 C 887.03 157.58 923.87 163.55 960.40 170.90 C 960.51 172.69 960.62 174.48 960.75 176.27 C 968.02 177.79 975.46 178.68 982.62 180.65 C 982.85 180.92 983.30 181.46 983.52 181.72 C 950.53 176.34 917.35 171.82 884.00 169.34 C 877.65 168.78 871.30 168.19 864.93 168.31 C 861.58 167.97 858.37 166.71 854.98 166.74 C 848.95 166.82 842.96 165.96 836.93 166.10 C 829.66 164.93 822.27 165.91 814.98 164.99 C 809.64 164.50 804.28 164.94 798.93 164.75 C 779.97 163.71 760.97 164.37 741.98 164.19 C 728.29 163.90 714.64 165.10 700.94 164.81 C 693.96 165.77 686.91 165.18 679.91 165.67 C 674.33 166.55 668.66 165.85 663.08 166.62 C 652.50 166.86 641.98 167.99 631.42 168.45 C 687.23 174.61 742.99 182.23 797.94 194.01 C 810.02 196.29 821.86 199.79 834.02 201.65 C 873.24 211.77 912.27 223.34 949.41 239.66 C 967.92 247.75 986.01 257.02 1002.53 268.68 C 1002.80 269.14 1003.32 270.06 1003.59 270.52 C 973.27 251.55 939.72 238.32 905.43 228.50 C 887.82 223.41 869.96 219.25 851.93 216.00 C 850.27 215.66 848.64 215.28 847.04 214.76 C 845.92 214.70 844.80 214.64 843.70 214.59 C 843.33 214.17 842.58 213.31 842.20 212.89 C 828.43 210.95 814.76 208.28 800.98 206.35 C 768.17 201.65 735.11 198.71 702.05 196.68 C 693.37 196.52 684.72 195.54 676.03 195.76 C 666.86 195.25 657.66 194.84 648.48 195.46 C 669.29 200.65 689.79 207.05 710.19 213.66 C 734.29 221.55 758.10 230.34 781.40 240.37 C 788.29 243.16 794.87 246.67 801.87 249.18 C 832.78 263.90 863.03 280.68 889.47 302.62 C 898.69 310.65 908.05 318.89 914.88 329.14 C 910.62 326.52 907.51 322.48 903.72 319.28 C 872.73 291.97 835.34 273.08 797.15 257.99 C 786.83 253.07 775.93 249.50 765.15 245.76 C 730.93 234.39 695.91 225.48 660.49 218.73 C 674.98 246.99 687.41 276.30 697.75 306.33 C 702.18 309.51 706.18 313.21 710.44 316.59 C 721.19 326.75 729.48 339.40 735.25 352.99 C 747.20 381.30 746.67 414.62 733.61 442.46 C 722.22 466.99 701.94 487.52 676.90 498.02 C 627.76 520.44 583.12 551.99 543.42 588.45 C 539.66 592.70 534.95 595.93 531.09 600.08 C 524.78 606.41 518.47 612.72 512.14 619.03 C 509.33 622.02 506.88 625.36 503.80 628.10 C 512.84 636.80 525.66 640.74 538.02 640.76 C 562.52 641.63 587.02 631.70 604.58 614.70 C 603.12 617.42 600.70 619.41 598.56 621.58 C 585.30 633.93 569.22 643.22 551.90 648.57 C 542.54 650.86 532.74 652.21 523.16 650.46 C 512.98 649.04 503.19 644.46 495.69 637.42 C 486.98 646.79 479.14 656.95 471.11 666.90 C 469.86 666.40 468.62 665.90 467.38 665.41 C 474.80 653.95 482.10 642.40 490.31 631.48 C 482.94 622.95 479.62 611.75 477.81 600.83 C 475.63 585.69 479.67 569.93 488.63 557.58 C 498.89 543.36 513.44 532.85 528.87 524.83 C 547.46 515.09 567.52 508.30 587.98 503.77 C 604.23 499.80 620.67 496.38 636.41 490.62 C 647.72 486.29 659.31 482.30 669.55 475.69 C 676.28 472.72 682.26 468.41 688.26 464.19 C 692.47 459.80 697.58 456.32 701.21 451.36 C 712.58 438.26 719.07 421.24 720.61 404.04 C 720.51 397.70 721.02 391.29 720.11 385.00 C 717.27 362.32 705.06 340.96 686.93 327.05 C 685.03 325.64 683.74 323.59 681.86 322.18 C 666.64 312.03 648.28 306.70 629.99 307.21 C 620.23 307.71 610.69 309.99 601.26 312.42 C 591.76 314.73 582.40 317.53 573.05 320.35 C 560.53 325.93 547.27 329.75 534.53 334.83 C 519.32 341.04 503.97 347.06 489.47 354.84 C 492.18 364.07 487.39 375.81 477.77 378.81 C 458.23 386.57 440.59 399.20 427.19 415.43 C 422.18 407.43 413.32 402.89 404.71 399.77 C 420.39 397.08 435.44 389.44 445.88 377.28 C 444.57 376.74 443.27 376.21 441.97 375.68 C 442.63 373.88 443.54 372.19 444.64 370.62 C 450.86 361.23 456.71 351.61 463.00 342.27 C 468.75 343.21 474.63 342.16 480.34 343.42 C 483.41 341.43 486.64 339.71 489.81 337.88 C 494.40 335.21 497.41 330.73 500.99 326.95 C 506.21 321.00 511.42 315.05 516.73 309.18 C 516.82 314.26 515.38 319.21 514.45 324.17 C 518.33 322.88 522.27 321.24 525.32 318.44 C 531.42 312.22 537.57 306.02 543.74 299.87 C 543.81 303.98 542.57 307.97 541.43 311.88 C 545.85 309.88 551.00 309.09 554.61 305.60 C 558.65 301.61 562.67 297.60 566.84 293.76 C 566.59 296.61 566.06 299.43 565.31 302.19 C 579.74 296.79 594.19 291.27 609.11 287.33 C 620.78 284.97 632.35 280.33 641.03 271.97 C 649.54 263.28 652.97 250.46 651.21 238.56 C 649.02 220.75 640.83 204.41 631.76 189.19 C 621.72 173.04 610.29 157.70 597.36 143.75 Z" />
<path fill="#dfdede" d=" M 619.23 317.45 C 645.12 312.64 672.86 322.50 690.60 341.80 C 687.43 343.83 691.55 346.71 692.55 348.92 C 688.96 351.54 686.03 355.07 684.81 359.40 C 683.78 357.92 682.67 356.50 681.58 355.08 C 671.94 343.94 658.35 336.16 643.83 333.53 C 627.25 330.64 609.32 334.19 595.69 344.24 C 592.18 346.97 588.42 349.50 585.65 353.02 C 581.66 352.35 578.32 350.07 575.30 347.53 C 575.50 345.68 575.69 343.81 575.90 341.97 C 575.41 342.08 574.42 342.31 573.92 342.42 C 585.67 329.32 601.90 320.42 619.23 317.45 Z" />
<path fill="#63514f" d=" M 595.69 344.24 C 609.32 334.19 627.25 330.64 643.83 333.53 C 658.35 336.16 671.94 343.94 681.58 355.08 C 681.27 359.30 685.46 362.33 684.50 366.70 C 677.24 353.49 664.49 343.66 650.30 338.89 C 629.04 331.96 604.16 338.47 589.02 354.90 C 588.95 349.97 594.64 348.57 595.69 344.24 Z" />
<path fill="#000000" d=" M 589.02 354.90 C 604.16 338.47 629.04 331.96 650.30 338.89 C 664.49 343.66 677.24 353.49 684.50 366.70 C 687.16 373.23 690.93 379.42 691.75 386.57 C 693.50 394.85 691.30 403.12 689.89 411.26 C 688.58 415.73 686.50 419.91 684.62 424.15 C 682.48 427.78 679.92 431.13 677.39 434.49 C 674.86 437.44 671.98 440.09 668.84 442.37 C 668.55 442.23 667.96 441.94 667.67 441.79 C 667.96 440.71 668.30 439.64 668.64 438.58 C 664.46 440.54 659.75 442.27 657.29 446.49 C 658.70 446.67 660.12 446.84 661.55 447.02 C 649.22 454.39 634.01 456.52 620.02 453.51 C 609.27 451.31 599.39 445.79 591.27 438.49 C 587.76 434.55 584.30 430.54 581.44 426.09 C 579.72 422.50 577.81 419.00 576.34 415.31 C 575.05 408.94 573.69 402.16 568.50 397.72 C 568.23 392.10 569.20 386.54 570.20 381.04 C 572.23 370.56 578.13 361.27 585.27 353.50 C 583.79 356.40 582.37 359.35 581.64 362.55 C 584.81 360.76 587.08 357.89 589.02 354.90 Z" />
<path fill="#dfdede" d=" M 595.25 351.26 C 607.92 340.54 625.34 335.42 641.75 338.35 C 654.86 340.30 666.93 347.31 675.89 356.98 C 663.80 347.96 649.58 339.57 633.96 340.34 C 628.21 340.28 622.39 340.21 616.82 341.82 C 609.06 343.56 602.34 347.90 595.25 351.26 Z" />
<path fill="#9d9796" d=" M 616.82 341.82 C 622.39 340.21 628.21 340.28 633.96 340.34 C 649.58 339.57 663.80 347.96 675.89 356.98 C 679.77 361.25 682.04 366.65 684.77 371.67 C 683.98 370.85 683.19 370.04 682.40 369.25 C 681.01 369.25 679.62 369.24 678.24 369.24 C 676.56 372.92 674.08 376.17 672.37 379.82 C 672.19 383.48 673.47 387.00 674.18 390.54 C 674.21 393.38 673.86 396.21 673.92 399.06 C 670.96 403.04 666.18 404.54 662.19 407.13 C 656.52 412.41 649.75 416.94 642.00 418.36 C 637.32 418.77 632.59 418.54 627.90 418.52 C 624.56 418.53 621.76 416.47 618.95 414.95 C 619.77 414.74 621.42 414.32 622.24 414.12 C 625.80 412.13 628.31 408.80 630.47 405.44 C 636.80 405.39 643.22 404.21 648.93 401.42 C 650.93 401.40 653.20 402.12 654.97 400.84 C 656.59 399.71 657.09 397.66 657.80 395.93 C 661.69 393.97 665.37 391.64 669.00 389.25 C 667.68 383.79 663.70 378.91 658.19 377.37 C 652.02 375.73 644.86 376.54 639.89 380.80 C 636.17 383.72 633.92 388.10 632.74 392.61 C 626.19 393.16 620.43 389.36 615.50 385.52 C 610.94 381.90 607.98 376.82 605.08 371.88 C 604.50 371.68 603.35 371.26 602.77 371.06 C 614.94 355.44 639.88 352.62 655.40 364.82 C 655.49 367.06 655.72 369.30 656.19 371.50 C 658.24 371.47 660.28 371.45 662.34 371.43 C 666.53 375.59 667.91 381.59 671.89 385.85 C 672.16 377.26 664.13 371.83 663.73 363.53 C 658.53 364.52 654.84 360.25 650.45 358.38 C 645.92 356.38 641.06 354.76 636.05 354.99 C 631.05 355.10 625.90 354.51 621.07 356.10 C 617.06 357.19 613.43 359.23 609.71 361.01 C 606.79 361.78 604.27 363.45 601.83 365.16 C 600.44 362.02 599.50 358.69 599.22 355.26 C 595.36 355.13 592.42 357.72 589.65 360.03 C 589.34 359.47 588.73 358.35 588.42 357.79 C 590.51 355.45 592.48 352.83 595.25 351.26 C 602.34 347.90 609.06 343.56 616.82 341.82 Z" />
<path fill="#9d9796" d=" M 565.78 352.92 C 568.34 349.33 570.59 345.31 573.92 342.42 C 574.42 342.31 575.41 342.08 575.90 341.97 C 575.69 343.81 575.50 345.68 575.30 347.53 C 578.32 350.07 581.66 352.35 585.65 353.02 L 585.27 353.50 C 578.13 361.27 572.23 370.56 570.20 381.04 C 566.13 378.71 563.22 374.07 558.14 373.98 C 557.23 376.82 556.35 379.67 555.91 382.63 C 555.51 385.20 555.08 387.77 554.82 390.37 C 554.54 393.88 554.42 397.41 554.03 400.91 C 552.04 384.18 556.30 366.84 565.78 352.92 Z" />
<path fill="#9d9796" d=" M 692.55 348.92 C 691.55 346.71 687.43 343.83 690.60 341.80 C 705.32 357.43 713.70 379.49 710.97 401.02 C 710.56 397.85 710.44 394.66 710.26 391.49 C 710.04 388.53 709.52 385.60 709.10 382.67 C 708.07 374.99 704.81 367.90 701.76 360.87 C 701.56 366.20 697.87 370.35 695.10 374.60 C 694.56 374.57 693.50 374.50 692.97 374.47 C 691.35 368.92 687.97 364.16 684.81 359.40 C 686.03 355.07 688.96 351.54 692.55 348.92 Z" />
<path fill="#291a0f" d=" M 585.65 353.02 C 588.42 349.50 592.18 346.97 595.69 344.24 C 594.64 348.57 588.95 349.97 589.02 354.90 C 587.08 357.89 584.81 360.76 581.64 362.55 C 582.37 359.35 583.79 356.40 585.27 353.50 L 585.65 353.02 Z" />
<path fill="#63514f" d=" M 589.65 360.03 C 592.42 357.72 595.36 355.13 599.22 355.26 C 599.50 358.69 600.44 362.02 601.83 365.16 C 604.27 363.45 606.79 361.78 609.71 361.01 C 601.75 366.75 594.40 374.85 593.02 384.92 L 592.12 383.28 C 590.21 378.81 586.81 375.27 584.29 371.17 C 582.75 372.20 581.20 373.24 579.43 373.82 C 581.83 368.20 584.38 362.44 588.42 357.79 C 588.73 358.35 589.34 359.47 589.65 360.03 Z" />
<path fill="#dfdede" d=" M 621.07 356.10 C 625.90 354.51 631.05 355.10 636.05 354.99 C 641.06 354.76 645.92 356.38 650.45 358.38 C 654.84 360.25 658.53 364.52 663.73 363.53 C 664.13 371.83 672.16 377.26 671.89 385.85 C 667.91 381.59 666.53 375.59 662.34 371.43 C 660.28 371.45 658.24 371.47 656.19 371.50 C 655.72 369.30 655.49 367.06 655.40 364.82 C 639.88 352.62 614.94 355.44 602.77 371.06 C 599.28 375.41 596.36 380.24 594.56 385.55 C 593.88 387.08 593.15 388.59 592.45 390.12 C 592.68 388.39 592.89 386.65 593.02 384.92 C 594.40 374.85 601.75 366.75 609.71 361.01 C 613.43 359.23 617.06 357.19 621.07 356.10 Z" />
<path fill="#291a0f" d=" M 684.50 366.70 C 685.46 362.33 681.27 359.30 681.58 355.08 C 682.67 356.50 683.78 357.92 684.81 359.40 C 687.97 364.16 691.35 368.92 692.97 374.47 C 695.36 382.07 696.78 389.95 696.69 397.93 C 699.20 395.97 701.93 394.22 703.98 391.75 C 705.63 388.62 704.46 383.28 709.10 382.67 C 709.52 385.60 710.04 388.53 710.26 391.49 C 706.25 393.71 702.91 396.88 699.35 399.72 C 698.67 404.55 700.94 409.16 700.46 414.01 C 700.78 420.94 698.49 427.55 697.50 434.31 C 698.55 433.86 699.37 433.17 699.97 432.24 C 704.46 424.72 707.16 416.35 709.64 408.00 C 710.00 415.40 707.39 422.52 704.42 429.16 C 701.55 435.60 697.53 441.43 693.25 447.00 L 693.28 446.05 L 693.35 443.91 C 682.24 455.90 668.00 464.68 652.60 470.01 C 653.07 470.10 654.00 470.28 654.47 470.37 L 655.29 470.53 C 632.48 477.94 607.01 472.70 586.89 460.37 C 573.84 451.55 563.82 438.43 558.39 423.68 C 556.58 418.66 555.38 413.40 555.35 408.05 C 559.20 425.57 568.49 442.10 582.41 453.56 C 595.58 464.80 612.75 470.97 630.00 471.43 C 633.36 471.52 636.70 470.99 640.00 470.37 C 634.94 471.12 630.01 469.60 624.97 469.50 C 621.40 469.31 618.16 467.64 614.84 466.48 C 606.17 462.92 597.18 459.12 590.63 452.18 C 586.96 447.04 582.53 442.13 580.66 435.98 C 580.69 435.35 580.75 434.08 580.78 433.44 C 581.04 433.73 581.55 434.29 581.81 434.58 C 595.08 451.78 617.69 461.23 639.23 458.23 C 639.34 458.25 639.58 458.27 639.69 458.29 C 639.58 458.56 639.35 459.12 639.23 459.40 C 635.00 459.28 630.76 459.34 626.55 459.78 C 630.00 462.08 634.23 462.15 638.08 463.32 C 641.95 464.46 646.02 464.87 650.04 464.48 C 656.99 463.59 664.33 463.37 670.43 459.47 C 676.79 456.19 680.36 449.54 682.34 442.95 C 682.99 440.75 682.67 438.44 681.70 436.41 C 683.18 434.65 684.49 432.76 685.84 430.91 C 688.01 427.86 689.72 424.51 691.24 421.09 C 693.65 416.33 694.85 411.10 695.34 405.81 C 693.48 407.59 691.61 409.35 689.89 411.26 C 691.30 403.12 693.50 394.85 691.75 386.57 C 690.93 379.42 687.16 373.23 684.50 366.70 Z" />
<path fill="#000000" d=" M 449.57 374.76 C 453.04 369.37 456.91 364.26 460.66 359.07 C 460.35 362.01 459.69 364.89 459.08 367.78 C 455.85 370.02 452.74 372.43 449.57 374.76 Z" />
<path fill="#63514f" d=" M 695.10 374.60 C 697.87 370.35 701.56 366.20 701.76 360.87 C 704.81 367.90 708.07 374.99 709.10 382.67 C 704.46 383.28 705.63 388.62 703.98 391.75 C 701.93 394.22 699.20 395.97 696.69 397.93 C 696.78 389.95 695.36 382.07 692.97 374.47 C 693.50 374.50 694.56 374.57 695.10 374.60 Z" />
<path fill="#63514f" d=" M 678.24 369.24 C 679.62 369.24 681.01 369.25 682.40 369.25 C 683.19 370.04 683.98 370.85 684.77 371.67 C 685.54 372.59 685.86 373.79 686.21 374.93 C 686.38 376.05 686.74 378.30 686.91 379.42 C 685.88 378.52 684.88 377.74 683.86 376.89 C 681.73 382.13 677.41 386.00 674.18 390.54 C 673.47 387.00 672.19 383.48 672.37 379.82 C 674.08 376.17 676.56 372.92 678.24 369.24 Z" />
<path fill="#291a0f" d=" M 579.43 373.82 C 581.20 373.24 582.75 372.20 584.29 371.17 C 586.81 375.27 590.21 378.81 592.12 383.28 C 591.27 388.40 591.02 393.60 591.26 398.78 C 590.33 397.53 589.60 396.16 588.91 394.79 C 587.35 391.60 584.02 389.79 582.33 386.68 C 581.38 385.34 580.89 383.59 579.57 382.56 C 578.49 382.89 577.49 383.46 576.48 383.95 C 576.90 380.54 577.53 377.12 578.98 373.99 L 579.43 373.82 Z" />
<path fill="#63514f" d=" M 594.56 385.55 C 596.36 380.24 599.28 375.41 602.77 371.06 C 603.35 371.26 604.50 371.68 605.08 371.88 C 607.98 376.82 610.94 381.90 615.50 385.52 C 620.43 389.36 626.19 393.16 632.74 392.61 C 632.25 396.91 632.76 401.54 630.47 405.44 C 628.31 408.80 625.80 412.13 622.24 414.12 C 615.60 408.59 607.75 404.56 601.96 398.03 C 599.26 395.76 597.61 391.80 593.84 391.16 C 594.01 389.28 594.25 387.40 594.56 385.55 Z" />
<path fill="#63514f" d=" M 555.91 382.63 C 556.35 379.67 557.23 376.82 558.14 373.98 C 563.22 374.07 566.13 378.71 570.20 381.04 C 569.20 386.54 568.23 392.10 568.50 397.72 C 565.84 394.83 562.47 392.47 560.83 388.79 C 559.53 386.51 558.75 383.48 555.91 382.63 Z" />
<path fill="#291a0f" d=" M 686.21 374.93 C 687.83 378.20 688.98 381.77 688.73 385.46 C 688.15 385.35 686.97 385.12 686.39 385.01 C 681.80 390.44 678.58 396.84 674.06 402.31 C 674.02 401.50 673.96 399.87 673.92 399.06 C 673.86 396.21 674.21 393.38 674.18 390.54 C 677.41 386.00 681.73 382.13 683.86 376.89 C 684.88 377.74 685.88 378.52 686.91 379.42 C 686.74 378.30 686.38 376.05 686.21 374.93 Z" />
<path fill="#dfdede" d=" M 639.89 380.80 C 644.86 376.54 652.02 375.73 658.19 377.37 C 663.70 378.91 667.68 383.79 669.00 389.25 C 665.37 391.64 661.69 393.97 657.80 395.93 C 657.60 391.57 651.99 388.61 648.61 391.71 C 645.27 394.13 646.07 398.97 648.93 401.42 C 643.22 404.21 636.80 405.39 630.47 405.44 C 632.76 401.54 632.25 396.91 632.74 392.61 C 633.92 388.10 636.17 383.72 639.89 380.80 Z" />
<path fill="#291a0f" d=" M 555.91 382.63 C 558.75 383.48 559.53 386.51 560.83 388.79 C 562.47 392.47 565.84 394.83 568.50 397.72 C 573.69 402.16 575.05 408.94 576.34 415.31 C 573.65 413.67 571.93 410.98 570.29 408.38 C 570.41 409.56 570.64 411.93 570.75 413.11 C 568.44 409.13 569.45 404.32 567.97 400.17 C 563.74 396.73 559.37 393.38 554.82 390.37 C 555.08 387.77 555.51 385.20 555.91 382.63 Z" />
<path fill="#9d9796" d=" M 592.12 383.28 L 593.02 384.92 C 592.89 386.65 592.68 388.39 592.45 390.12 C 593.15 388.59 593.88 387.08 594.56 385.55 C 594.25 387.40 594.01 389.28 593.84 391.16 C 593.57 394.29 593.42 397.44 593.73 400.58 C 593.18 401.53 592.65 402.51 592.13 403.49 L 591.78 404.14 C 591.56 402.35 591.35 400.57 591.26 398.78 C 591.02 393.60 591.27 388.40 592.12 383.28 Z" />
<path fill="#291a0f" d=" M 593.84 391.16 C 597.61 391.80 599.26 395.76 601.96 398.03 C 607.75 404.56 615.60 408.59 622.24 414.12 C 621.42 414.32 619.77 414.74 618.95 414.95 C 612.93 416.56 605.98 416.11 601.04 411.98 C 597.29 409.20 595.18 404.89 593.73 400.58 C 593.42 397.44 593.57 394.29 593.84 391.16 Z" />
<path fill="#dfdede" d=" M 608.44 392.90 C 610.56 391.00 613.80 389.65 616.32 391.70 C 619.36 393.43 618.88 397.36 617.46 399.99 C 614.16 399.54 611.14 398.18 608.40 396.36 C 608.41 395.49 608.43 393.76 608.44 392.90 Z" />
<path fill="#63514f" d=" M 648.61 391.71 C 651.99 388.61 657.60 391.57 657.80 395.93 C 657.09 397.66 656.59 399.71 654.97 400.84 C 653.20 402.12 650.93 401.40 648.93 401.42 C 646.07 398.97 645.27 394.13 648.61 391.71 Z" />
<path fill="#9d9796" d=" M 608.98 399.96 C 607.00 398.07 607.09 395.11 608.44 392.90 C 608.43 393.76 608.41 395.49 608.40 396.36 C 611.14 398.18 614.16 399.54 617.46 399.99 C 615.10 402.15 611.21 402.48 608.98 399.96 Z" />
<path fill="#63514f" d=" M 662.19 407.13 C 666.18 404.54 670.96 403.04 673.92 399.06 C 673.96 399.87 674.02 401.50 674.06 402.31 C 671.84 419.24 658.05 434.34 641.09 437.30 C 630.34 439.26 618.80 437.41 609.61 431.36 C 614.85 433.34 619.83 436.25 625.52 436.78 C 635.69 438.08 647.17 436.58 654.97 429.37 C 651.76 429.63 648.76 430.84 645.62 431.41 C 638.76 432.13 631.94 430.76 625.20 429.67 C 618.88 428.60 613.32 425.22 607.79 422.17 C 602.54 419.34 598.89 414.46 593.93 411.24 C 592.12 409.17 592.18 406.09 592.13 403.49 C 592.65 402.51 593.18 401.53 593.73 400.58 C 595.18 404.89 597.29 409.20 601.04 411.98 C 605.98 416.11 612.93 416.56 618.95 414.95 C 621.76 416.47 624.56 418.53 627.90 418.52 C 632.59 418.54 637.32 418.77 642.00 418.36 C 649.75 416.94 656.52 412.41 662.19 407.13 Z" />
<path fill="#63514f" d=" M 689.89 411.26 C 691.61 409.35 693.48 407.59 695.34 405.81 C 694.85 411.10 693.65 416.33 691.24 421.09 C 691.43 420.08 691.81 418.05 692.01 417.04 C 689.81 419.68 687.33 422.05 684.62 424.15 C 686.50 419.91 688.58 415.73 689.89 411.26 Z" />
<path fill="#63514f" d=" M 570.29 408.38 C 571.93 410.98 573.65 413.67 576.34 415.31 C 577.81 419.00 579.72 422.50 581.44 426.09 C 578.27 424.33 575.86 421.62 573.74 418.74 L 573.61 420.72 C 572.31 418.33 571.29 415.78 570.75 413.11 C 570.64 411.93 570.41 409.56 570.29 408.38 Z" />
<path fill="#291a0f" d=" M 593.93 411.24 C 598.89 414.46 602.54 419.34 607.79 422.17 C 613.32 425.22 618.88 428.60 625.20 429.67 C 631.94 430.76 638.76 432.13 645.62 431.41 C 648.76 430.84 651.76 429.63 654.97 429.37 C 647.17 436.58 635.69 438.08 625.52 436.78 C 619.83 436.25 614.85 433.34 609.61 431.36 C 604.41 428.85 600.61 424.15 597.27 419.58 C 595.76 417.02 593.39 414.43 593.93 411.24 Z" />
<path fill="#9d9796" d=" M 684.62 424.15 C 687.33 422.05 689.81 419.68 692.01 417.04 C 691.81 418.05 691.43 420.08 691.24 421.09 C 689.72 424.51 688.01 427.86 685.84 430.91 C 683.12 432.33 680.28 433.48 677.39 434.49 C 679.92 431.13 682.48 427.78 684.62 424.15 Z" />
<path fill="#9d9796" d=" M 573.74 418.74 C 575.86 421.62 578.27 424.33 581.44 426.09 C 584.30 430.54 587.76 434.55 591.27 438.49 C 588.03 437.38 585.33 434.74 581.81 434.58 C 581.55 434.29 581.04 433.73 580.78 433.44 C 577.85 429.55 575.52 425.20 573.61 420.72 L 573.74 418.74 Z" />
<path fill="#dfdede" d=" M 677.39 434.49 C 680.28 433.48 683.12 432.33 685.84 430.91 C 684.49 432.76 683.18 434.65 681.70 436.41 C 678.43 439.90 675.17 443.43 671.35 446.33 C 667.88 449.58 663.60 451.60 659.24 453.36 C 653.06 456.07 646.38 457.52 639.69 458.29 C 639.58 458.27 639.34 458.25 639.23 458.23 C 617.69 461.23 595.08 451.78 581.81 434.58 C 585.33 434.74 588.03 437.38 591.27 438.49 C 599.39 445.79 609.27 451.31 620.02 453.51 C 634.01 456.52 649.22 454.39 661.55 447.02 C 664.01 445.53 666.50 444.06 668.84 442.37 C 671.98 440.09 674.86 437.44 677.39 434.49 Z" />
<path fill="#63514f" d=" M 681.70 436.41 C 682.67 438.44 682.99 440.75 682.34 442.95 C 680.36 449.54 676.79 456.19 670.43 459.47 C 664.33 463.37 656.99 463.59 650.04 464.48 C 646.02 464.87 641.95 464.46 638.08 463.32 C 634.23 462.15 630.00 462.08 626.55 459.78 C 630.76 459.34 635.00 459.28 639.23 459.40 C 639.35 459.12 639.58 458.56 639.69 458.29 C 646.38 457.52 653.06 456.07 659.24 453.36 C 661.80 454.37 664.54 454.68 667.29 454.77 C 668.72 453.26 670.16 451.77 671.59 450.26 C 671.53 449.28 671.41 447.31 671.35 446.33 C 675.17 443.43 678.43 439.90 681.70 436.41 Z" />
<path fill="#291a0f" d=" M 657.29 446.49 C 659.75 442.27 664.46 440.54 668.64 438.58 C 668.30 439.64 667.96 440.71 667.67 441.79 C 667.96 441.94 668.55 442.23 668.84 442.37 C 666.50 444.06 664.01 445.53 661.55 447.02 C 660.12 446.84 658.70 446.67 657.29 446.49 Z" />
<path fill="#63514f" d=" M 652.60 470.01 C 668.00 464.68 682.24 455.90 693.35 443.91 L 693.28 446.05 C 683.67 458.35 669.61 466.82 654.47 470.37 C 654.00 470.28 653.07 470.10 652.60 470.01 Z" />
<path fill="#9d9796" d=" M 659.24 453.36 C 663.60 451.60 667.88 449.58 671.35 446.33 C 671.41 447.31 671.53 449.28 671.59 450.26 C 670.16 451.77 668.72 453.26 667.29 454.77 C 664.54 454.68 661.80 454.37 659.24 453.36 Z" />
<path fill="#000000" d=" M 521.68 545.68 C 545.07 529.98 573.16 523.55 600.56 519.12 C 582.90 531.66 566.77 546.23 551.01 561.02 C 531.91 579.64 514.38 599.82 497.98 620.85 C 491.95 611.38 491.45 599.65 492.61 588.81 C 495.13 570.91 506.89 555.52 521.68 545.68 Z" />
</svg>
