<?xml version="1.0" encoding="utf-8"?>
<!-- Generator: Adobe Illustrator 16.0.0, SVG Export Plug-In . SVG Version: 6.00 Build 0)  -->
<!DOCTYPE svg PUBLIC "-//W3C//DTD SVG 1.1//EN" "http://www.w3.org/Graphics/SVG/1.1/DTD/svg11.dtd">
<svg version="1.1"
	 id="图层_1" xmlns:dc="http://purl.org/dc/elements/1.1/" xmlns:cc="http://creativecommons.org/ns#" xmlns:rdf="http://www.w3.org/1999/02/22-rdf-syntax-ns#" xmlns:svg="http://www.w3.org/2000/svg"
	 xmlns="http://www.w3.org/2000/svg" xmlns:xlink="http://www.w3.org/1999/xlink" x="0px" y="0px" width="306px" height="185px"
	 viewBox="0 0 306 185" enable-background="new 0 0 306 185" xml:space="preserve">
<g id="layer3" transform="translate(-92,-63.999774)">
	<g id="layer5">
		<path id="path2554" fill="#ABCD03" d="M264.514,77.978l-4.918,19.529c6.965-13.793,18.027-24.172,30.729-33.323
			c-9.287,10.789-17.755,21.579-22.944,32.368c8.741-12.292,20.486-19.12,33.733-23.627c-17.618,15.706-31.603,32.56-42.255,49.495
			l-8.468-3.687C251.893,105.211,257.001,91.363,264.514,77.978L264.514,77.978z"/>
		<path id="path2534" fill="#FFFCDB" d="M241.901,115.141l16.116,6.686c0,4.098-0.334,16.597,2.229,20.284
			c26.803,34.519,22.294,103.713-5.43,105.488c-42.216,0-58.316-28.679-58.316-55.037c0-24.037,28.816-40.017,46.025-54.22
			C246.895,134.519,246.137,126.068,241.901,115.141L241.901,115.141z"/>
		<path id="path2536" fill="#7D4698" d="M258.021,121.587l5.809,2.962c-0.546,3.823,0.273,12.292,4.096,14.476
			c16.936,10.516,32.914,21.988,39.197,33.46c22.398,40.426-15.706,77.846-48.62,74.295c17.892-13.248,23.081-40.426,16.39-70.062
			c-2.731-11.609-6.967-22.125-14.479-34.007C257.16,136.879,258.296,129.646,258.021,121.587L258.021,121.587z"/>
	</g>
	<g id="layer4">
		<path id="path2538" d="M255.227,120.589l12.018,1.639c-3.551,11.745,6.966,19.939,10.38,21.852
			c7.647,4.234,15.022,8.604,20.896,13.93c11.063,10.106,17.346,24.311,17.346,39.333c0,14.886-6.829,29.226-18.301,38.786
			c-10.789,9.014-25.676,12.838-40.152,12.838c-9.014,0-17.072-0.408-25.812-3.277c-19.939-6.692-34.826-23.764-36.055-44.25
			c-1.093-15.979,2.458-28.135,14.887-40.836c6.418-6.691,19.393-14.339,28.271-20.485c4.371-3.005,9.014-11.473,0.136-27.451
			l1.776-1.366l13.157,8.812l-11.107-4.578c0.956,1.366,3.551,7.512,4.098,9.287c1.229,5.053,0.684,9.971-0.41,12.155
			c-5.599,10.107-15.159,12.838-22.124,18.574c-12.292,10.106-25.676,18.164-24.174,45.889
			c0.683,13.656,11.336,30.318,27.314,38.104c9.014,4.371,19.394,6.146,29.909,6.691c9.424,0.41,27.451-5.189,37.285-13.383
			c10.516-8.74,16.389-21.988,16.389-35.509c0-13.657-5.463-26.632-15.706-35.782c-5.873-5.327-15.569-11.746-21.578-15.161
			c-6.009-3.414-13.521-12.974-11.063-22.124L255.227,120.589z"/>
		<path id="path2540" d="M251.539,140.802c-1.229,6.283-2.596,17.618-8.058,21.853c-2.322,1.638-4.644,3.277-7.102,4.916
			c-9.833,6.693-19.667,12.974-24.173,29.09c-0.956,3.415-0.136,7.102,0.684,10.516c2.458,9.833,9.423,20.486,14.886,26.77
			c0,0.272,1.093,0.955,1.093,1.229c4.507,5.327,5.873,6.829,22.943,10.652l-0.41,1.913c-10.242-2.731-18.709-5.189-24.036-11.337
			c0-0.135-0.956-1.092-0.956-1.092c-5.736-6.557-12.702-17.481-15.296-27.725c-0.956-4.098-1.775-7.238-0.683-11.473
			c4.643-16.661,14.75-23.217,24.993-30.182c2.322-1.502,5.053-2.869,7.238-4.645C246.895,158.146,249.216,148.586,251.539,140.802z
			"/>
		<path id="path2542" d="M255.906,166.75c0.137,7.102-0.557,10.664,1.219,15.719c1.092,3.004,4.782,7.102,5.875,11.062
			c1.502,5.326,3.139,11.199,3,14.75c0,4.098-0.256,11.742-2.031,19.938c-1.354,6.771-4.473,12.581-9.719,15.875
			c-5.373-1.106-11.682-2.996-15.406-6.188c-7.238-6.282-13.649-16.787-14.469-25.938c-0.682-7.512,6.273-18.589,15.969-24.188
			c8.193-4.78,10.1-10.229,11.875-18.969c-2.458,7.648-4.767,14.059-12.688,18.156c-11.472,6.009-17.358,16.096-16.812,25.656
			c0.819,12.291,5.742,20.619,15.438,27.312c4.097,2.867,11.752,5.898,16.531,6.719v-0.625c3.625-0.68,8.318-6.633,10.656-14.688
			c2.049-7.238,2.857-16.502,2.719-22.375c-0.137-3.414-1.643-10.809-4.375-17.5c-1.502-3.688-3.81-7.374-5.312-9.969
			C256.738,178.902,256.727,173.304,255.906,166.75z"/>
		<path id="path2544" d="M255.094,193.531c0.137,4.779,2.057,10.904,2.875,17.188c0.684,4.644,0.387,9.309,0.25,13.406
			c-0.135,4.743-1.715,13.242-3.875,17.375c-2.037-0.934-2.833-2-4.156-3.719c-1.639-2.322-2.751-4.645-3.844-7.375
			c-0.818-2.049-1.776-4.395-2.188-7.125c-0.546-4.098-0.393-10.507,4.25-17.062c3.551-5.19,4.365-5.585,5.594-11.594
			c-1.641,5.326-2.862,5.869-6.688,10.375c-4.233,4.917-4.938,12.159-4.938,18.031c0,2.459,0.98,5.188,1.938,7.781
			c1.092,2.732,2.029,5.451,3.531,7.5c2.258,3.32,5.148,5.209,6.562,5.562c0.009,0.002,0.021-0.002,0.031,0
			c0.03,0.007,0.064,0.025,0.094,0.031v-0.156c2.65-2.955,4.244-5.89,4.781-8.844c0.684-3.551,0.84-7.109,1.25-11.344
			c0.408-3.551,0.112-8.334-0.844-13.25C258.354,204.166,256.05,197.9,255.094,193.531L255.094,193.531z"/>
		<path id="path2550" d="M255.499,135.066c0.137,7.101,0.683,20.35,2.595,25.54c0.547,1.774,5.6,9.56,9.149,18.982
			c2.459,6.557,3.005,12.564,3.415,14.34c1.639,7.785-0.41,20.896-3.143,33.324c-1.365,6.691-6.009,15.023-11.334,18.301
			l-1.093,1.912c3.005-0.137,10.379-7.375,12.974-16.389c4.371-15.296,6.146-22.398,4.099-39.333
			c-0.272-1.64-0.956-7.238-3.552-13.248c-3.823-9.151-9.286-17.892-9.969-19.667C257.411,155.961,255.771,143.533,255.499,135.066
			L255.499,135.066z"/>
		<path id="path2552" d="M258.062,125.353c-0.405,7.298-0.514,9.985,0.852,15.312c1.502,5.873,9.151,14.34,12.292,24.037
			c6.009,18.573,4.507,42.884,0.136,61.866c-1.638,6.691-9.424,16.39-17.208,19.529l5.736,1.366
			c3.141-0.137,11.197-7.647,14.34-16.252c5.052-13.521,6.009-29.636,3.96-46.571c-0.137-1.639-2.869-16.252-5.463-22.397
			c-3.688-9.15-10.244-17.345-10.927-19.119C260.552,140.119,257.854,133.88,258.062,125.353L258.062,125.353z"/>
		<rect id="rect2556" x="253.72" y="120.217" width="0.55" height="126.019"/>
	</g>
</g>
</svg>
